<svg xmlns="http://www.w3.org/2000/svg" xmlns:xlink="http://www.w3.org/1999/xlink" viewBox="0 0 4680 3120"><defs><style>.cls-1{isolation:isolate;}.cls-2,.cls-33,.cls-35{fill:#fff;}.cls-3{fill:url(#linear-gradient);}.cls-4{fill:#c7d0e0;}.cls-20,.cls-4{opacity:0.64;}.cls-5{fill:#8bbae8;}.cls-32,.cls-6{fill:#0e1c56;}.cls-46,.cls-7{fill:#1b65f8;}.cls-63,.cls-8{fill:#daebff;}.cls-9{fill:#e86456;}.cls-10{fill:#d15046;}.cls-11{fill:#ed6658;}.cls-12{fill:#081849;}.cls-13,.cls-26{fill:#00091e;}.cls-13{opacity:0.37;}.cls-14{fill:#e7e5ea;}.cls-15{fill:#ce1406;}.cls-16{fill:#a30400;}.cls-17{fill:#f87b67;}.cls-18{fill:#ed442e;}.cls-19{fill:#c40e00;}.cls-20,.cls-21{fill:#e54f48;}.cls-22{fill:#1f2a83;}.cls-23,.cls-53{fill:#051956;}.cls-24,.cls-28{fill:#f99911;}.cls-25,.cls-29{fill:#ed8100;}.cls-26{opacity:0.29;}.cls-27{fill:#ffb100;}.cls-28{opacity:0.52;}.cls-29{opacity:0.58;}.cls-30{fill:#141a33;}.cls-30,.cls-31,.cls-32,.cls-33,.cls-35,.cls-44,.cls-45,.cls-46,.cls-47,.cls-48{fill-rule:evenodd;}.cls-31{fill:#030822;}.cls-33{opacity:0.26;}.cls-34{fill:#00000f;}.cls-36{fill:#000e3a;}.cls-37{fill:#9e9e9e;opacity:0.5;}.cls-37,.cls-63{mix-blend-mode:multiply;}.cls-38{opacity:0.49;}.cls-39{fill:#6f79c9;}.cls-40{fill:#009945;}.cls-41,.cls-44,.cls-55{fill:#00d569;}.cls-42{opacity:0.65;}.cls-43{fill:#c12a1f;}.cls-45{fill:#7df9b2;}.cls-47{fill:#6e9eea;}.cls-48{fill:#576fbc;}.cls-49{fill:#d9ecfa;}.cls-50{fill:#006dfe;}.cls-51{fill:#00e6ff;opacity:0.4;}.cls-52{fill:#45d788;}.cls-53{opacity:0.51;}.cls-54{opacity:0.53;}.cls-55{opacity:0.46;}.cls-56{fill:url(#linear-gradient-2);}.cls-57{fill:url(#linear-gradient-3);}.cls-58{fill:url(#linear-gradient-4);}.cls-59{fill:url(#linear-gradient-5);}.cls-60{fill:#b9d2ea;}.cls-61{fill:#8bb2cc;opacity:0.97;}.cls-62{opacity:0.77;}.cls-63{opacity:0.3;}.cls-64{fill:#2b3033;}.cls-65{fill:#a3a7aa;}</style><linearGradient id="linear-gradient" x1="2340" y1="3087.39" x2="2340" y2="2286.42" gradientUnits="userSpaceOnUse"><stop offset="0" stop-color="#f3f6fd" stop-opacity="0"/><stop offset="0.98" stop-color="#e2eefa"/></linearGradient><linearGradient id="linear-gradient-2" x1="3213.27" y1="2139.04" x2="3309.71" y2="2139.04" xlink:href="#linear-gradient"/><linearGradient id="linear-gradient-3" x1="3320.16" y1="2260.09" x2="3427.8" y2="2260.09" xlink:href="#linear-gradient"/><linearGradient id="linear-gradient-4" x1="3210.8" y1="2251.4" x2="3309.18" y2="2251.4" xlink:href="#linear-gradient"/><linearGradient id="linear-gradient-5" x1="3315.19" y1="2156.58" x2="3443" y2="2156.58" xlink:href="#linear-gradient"/></defs><title>Asset 5</title><g class="cls-1"><g id="Layer_2" data-name="Layer 2"><g id="Layer_1-2" data-name="Layer 1"><rect class="cls-2" width="4680" height="3120"/><rect class="cls-3" y="2404.24" width="4680" height="491.87"/><rect class="cls-4" x="1112.86" y="2455.16" width="2207.3" height="84.44" rx="16"/><path class="cls-5" d="M1260.67,2476.22h467a45.2,45.2,0,0,0,45.15-45.15V2095.18a45.2,45.2,0,0,0-45.15-45.15H1569.08a24.32,24.32,0,0,1-23.43-17.41l-144.42-479.08a94.19,94.19,0,0,0-90.73-67.42H1158a45.15,45.15,0,0,0-43.22,58.18l149,494.28a44.88,44.88,0,0,0,43.23,32.12h158.59a24.51,24.51,0,0,1,24.48,24.48v335.89a24.5,24.5,0,0,1-24.48,24.47h-205Zm467-405.52a24.51,24.51,0,0,1,24.48,24.48v335.89a24.5,24.5,0,0,1-24.48,24.47h-224.1a44.85,44.85,0,0,0,7.22-24.47V2095.18a45.2,45.2,0,0,0-45.15-45.15H1307.05a24.34,24.34,0,0,1-23.44-17.41l-149-494.29A24.48,24.48,0,0,1,1158,1506.8H1310.5a73.66,73.66,0,0,1,70.94,52.7l144.42,479.08a44.86,44.86,0,0,0,43.22,32.12Z"/><path class="cls-6" d="M1438.6,1835.1H1236a37.1,37.1,0,0,1-35.56-26.46L1132.35,1583a23.7,23.7,0,0,1,22.6-30.46h202.74a37.21,37.21,0,0,1,35.56,26.46l68,225.62A23.63,23.63,0,0,1,1438.6,1835.1Z"/><path class="cls-7" d="M1438.61,1835.1h-175a37.08,37.08,0,0,1-35.55-26.46L1159.93,1583a23.7,23.7,0,0,1,22.6-30.46h175a37.38,37.38,0,0,1,35.7,26.46l68,225.62A23.64,23.64,0,0,1,1438.61,1835.1Z"/><path class="cls-7" d="M1323.31,1974.54h432a0,0,0,0,1,0,0v75.87a3.37,3.37,0,0,1-3.37,3.37H1326.68a3.37,3.37,0,0,1-3.37-3.37v-75.87A0,0,0,0,1,1323.31,1974.54Z" transform="translate(3078.65 4028.32) rotate(180)"/><rect class="cls-6" x="1303.92" y="2024.7" width="470.82" height="46.27" rx="1.51" transform="translate(3078.65 4095.68) rotate(180)"/><path class="cls-8" d="M1260.67,2489.24h205a45.19,45.19,0,0,0,45.15-45.14V2108.2a45.2,45.2,0,0,0-45.15-45.15H1307.05a24.34,24.34,0,0,1-23.44-17.41l-149-494.28a24.48,24.48,0,0,1,23.43-31.54H1310.5a10.34,10.34,0,0,0,0-20.67H1158a45.14,45.14,0,0,0-43.22,58.18l149,494.27a44.88,44.88,0,0,0,43.23,32.12h158.59a24.52,24.52,0,0,1,24.48,24.48v335.9a24.51,24.51,0,0,1-24.48,24.47h-205a10.34,10.34,0,1,0,0,20.67Z"/><path class="cls-9" d="M1846.19,1606.57c2,1.49,25.39,4.48,43.3-10s28.87-19.24,36.34-14.6,36.33,25.87,36.33,25.87-111.49,46.47-116,41.49S1846.19,1606.57,1846.19,1606.57Z"/><path class="cls-10" d="M1852.91,1632.45s42.31-20.66,53-32.1,28.13-10.72,33.23-5.36-53.39,51.64-64.84,52.39S1852.91,1632.45,1852.91,1632.45Z"/><path class="cls-11" d="M2009.94,2365.1l39.57,64.18,70.78-6.86s-45.77-87.93-57-109.21S2009.94,2365.1,2009.94,2365.1Z"/><path class="cls-12" d="M2089.27,2350.45c-9.05,7.24-22,12-34.2,15.18-5.46,1.4-10.76,2.48-15.52,3.31-11,1.89-19,2.41-19,2.41-141.85-128.42-165.68-398.67-165.68-398.67s-175.56-2.8-310.8-23.25c-25.15-3.79-48.9-8.21-69.87-13.32-31-7.55-56-16.67-70.33-27.64-59.06-45.16-40.87-122.67-29.76-155.18,3.23-9.41,5.86-15,5.86-15s-91.45-63.46,258,24.63c35.49,8.95,67.41,17.29,96.14,25,135.43,36.58,199.82,60.34,230.41,74.57a51.67,51.67,0,0,1,29.58,41.07C2007.82,2024.64,2089.27,2350.45,2089.27,2350.45Z"/><path class="cls-13" d="M2055.07,2365.63c-5.46,1.4-10.76,2.48-15.52,3.31-11,1.89-19,2.41-19,2.41-141.85-128.42-165.68-398.67-165.68-398.67s-175.56-2.8-310.8-23.25l-123-197.73,254.58,57.19s255.33,48.53,274,97.8C1966.21,1950.26,2038.53,2288,2055.07,2365.63Z"/><path class="cls-14" d="M2183.24,2448c4.39-1.4,5.05-1.09,5.86,3.19-.84,1.24-1.75,2.45-2.52,3.74-1.08,1.8-2.67,2.63-4.63,1.63s-1.9-2.74-.91-4.55c.68-1.26,2.21-2.38,1.46-4-.9-1.93-4.41-2-5.95-.37-1.71,1.85-2.65,6-6.27,3.77-3.91-2.36-.14-4.83,1.07-7.14a9.58,9.58,0,0,0,.39-1.14c3.3-1.61,5.4-1.09,6,2.74"/><path class="cls-15" d="M2137.87,2420.29l3.27,3.38c-1,.95-1.92,1.94-2.95,2.85-1.42,1.25-2.14,2.68-.8,4.25s3.21,1.48,4.91.21c1.46-1.09,2.9-2.2,4.35-3.29l3.75,2.95c-.83.91-1.6,1.9-2.51,2.75-1.69,1.57-2.95,3.37-.85,5.21s3.95.46,5.54-1.14c1.07-1.08,2.17-2.15,3.26-3.23l4.73,2.69c-1.17,1.45-2.39,2.88-3.47,4.4a2.68,2.68,0,0,0,.44,4,3,3,0,0,0,4.22-.18c1.58-1.51,3-3.18,4.48-4.78l5.5,2.76a9.58,9.58,0,0,1-.39,1.14c-1.21,2.31-5,4.78-1.07,7.14,3.62,2.18,4.56-1.92,6.27-3.77,1.54-1.66,5-1.56,5.95.37.75,1.64-.78,2.76-1.46,4-1,1.81-1.11,3.51.91,4.55s3.55.17,4.63-1.63c.77-1.29,1.68-2.5,2.52-3.74l5,1.85c.39,1.53-1,2.45-1.52,3.63-.88,1.83-1,3.51,1.13,4.54,1.9.93,3.28,0,4.35-1.53.94-1.34,1.37-3,2.89-4l5.07,1.83c.41,1.66-.76,2.88-1.38,4.24-.83,1.8-.86,3.51,1.21,4.45s3.5,0,4.47-1.82c.83-1.53,1.76-3,2.65-4.51,1.77.94,73.12,17.52,79,34.65l-61.42.42-153.64,1-39.82.3c-.21-15.84-2.7-88.17-.27-92.12l-.3.1c1-.62,2-1.24,3-1.84a7.93,7.93,0,0,1,1.51-.37q34.6-.24,69.21-.44a9.91,9.91,0,0,1,4.13.64c.74.36-.37.56-.77.72l3.92-3.51c1.25,1.61,2.42,3.28,3.8,4.79,2.44,2.67,4.11,6.15,8.25,7.06l1.93,2.1.12.06v-.12c.51.74,1,1.48,1.55,2.21-1.11,1-2.19,2.06-3.35,3-1.65,1.4-2.66,3-.88,4.81,1.6,1.65,3.28,1,4.89-.19C2135.13,2422.17,2136.51,2421.25,2137.87,2420.29Zm-90.17,43.17c2.84,4.28,5.47,8,7.8,11.88,1.18,2,2.36,2.44,4.78,2,15-2.84,30.09-5.23,45-8.27a30.25,30.25,0,0,1,22,3.51c6.91,4,14.12,7.37,21.28,10.89a37.48,37.48,0,0,0,14.55,3.48c6.73.43,13.12-1.62,19.7-2.28a1.8,1.8,0,0,0,1.51-1.24c1.85-3.73,2.49-7.51.23-11.31-1.16-1.95-2.44-2.56-5.18-1.91-8.6,2-17.41,3.25-25.85-.59a137.6,137.6,0,0,1-15.91-8.26,49.06,49.06,0,0,0-34.2-7C2085,2457.05,2066.73,2460.3,2047.7,2463.46Z"/><path class="cls-16" d="M2037.06,2496.23l39.82-.3,153.64-1,61.42-.42c1,4.55.8,9.16.51,13.73-.27,4.36-3.71,6.8-9.06,6.87q-22.72.32-45.46.51-94.18.69-188.37,1.29a26.12,26.12,0,0,1-6-.5c-3.92-.92-7-4.6-6.41-8.15C2037.84,2504.2,2036.92,2500.24,2037.06,2496.23Z"/><path class="cls-14" d="M2166.24,2440.33c-1.49,1.6-2.9,3.27-4.48,4.78a3,3,0,0,1-4.22.18,2.68,2.68,0,0,1-.44-4c1.08-1.52,2.3-3,3.47-4.4C2163.74,2436.18,2165.73,2437.17,2166.24,2440.33Z"/><path class="cls-14" d="M2200.9,2455.68c-1.52,1-2,2.64-2.89,4-1.07,1.54-2.45,2.46-4.35,1.53-2.1-1-2-2.71-1.13-4.54.57-1.18,1.91-2.1,1.52-3.63C2198.55,2450.79,2199.69,2451.23,2200.9,2455.68Z"/><path class="cls-14" d="M2212.92,2459.87c-.89,1.5-1.82,3-2.65,4.51-1,1.81-2.45,2.74-4.47,1.82s-2-2.65-1.21-4.45c.62-1.36,1.79-2.58,1.38-4.24C2209.21,2455.9,2211.69,2456.26,2212.92,2459.87Z"/><path class="cls-14" d="M2155.84,2434.23c-1.09,1.08-2.19,2.15-3.26,3.23-1.59,1.6-3.44,3-5.54,1.14s-.84-3.64.85-5.21c.91-.85,1.68-1.84,2.51-2.75C2153.89,2429.59,2155.69,2430.81,2155.84,2434.23Z"/><path class="cls-14" d="M2137.87,2420.29c-1.36,1-2.74,1.88-4.06,2.88-1.61,1.24-3.29,1.84-4.89.19-1.78-1.85-.77-3.41.88-4.81,1.16-1,2.24-2,3.35-3C2137,2415.11,2138.59,2416.69,2137.87,2420.29Z"/><path class="cls-14" d="M2146.65,2427.69c-1.45,1.09-2.89,2.2-4.35,3.29-1.7,1.27-3.47,1.48-4.91-.21s-.62-3,.8-4.25c1-.91,2-1.9,2.95-2.85C2145.66,2422.74,2146.58,2423.42,2146.65,2427.69Z"/><path class="cls-14" d="M2129.55,2411.26c-4.14-.91-5.81-4.39-8.25-7.06-1.38-1.51-2.55-3.18-3.8-4.79,1-1.45,1.81-3.15,3.34-.35s2.95,5.35,6.25,6.85C2129,2406.77,2129.1,2409.3,2129.55,2411.26Z"/><path class="cls-14" d="M2131.6,2413.3v.12l-.12-.06,0-.18Z"/><path class="cls-14" d="M2036.49,2404.21l.3-.1Z"/><path class="cls-2" d="M2047.7,2463.46c19-3.16,37.32-6.41,55.69-9.16a49.06,49.06,0,0,1,34.2,7,137.6,137.6,0,0,0,15.91,8.26c8.44,3.84,17.25,2.6,25.85.59,2.74-.65,4,0,5.18,1.91,2.26,3.8,1.62,7.58-.23,11.31a1.8,1.8,0,0,1-1.51,1.24c-6.58.66-13,2.71-19.7,2.28a37.48,37.48,0,0,1-14.55-3.48c-7.16-3.52-14.37-6.94-21.28-10.89a30.25,30.25,0,0,0-22-3.51c-14.94,3-30,5.43-45,8.27-2.42.46-3.6,0-4.78-2C2053.17,2471.46,2050.54,2467.74,2047.7,2463.46Z"/><path class="cls-17" d="M1960.17,2381.89l39.57,64.18,70.77-6.85s-45.76-87.94-57-109.21S1960.17,2381.89,1960.17,2381.89Z"/><path class="cls-6" d="M2041.52,2376.87c-24.84,20.51-54,21.67-68.36,20.67a72.94,72.94,0,0,1-9-1.07c-141.84-128.42-154.72-388.24-154.72-388.24s-37.52-.6-91.23-3.26h0c-52-2.58-119.25-7.09-182.26-14.87-77.57-9.59-148.77-24.12-177.49-46.08-24-18.39-35.3-42.13-39.42-66-9-51.77,15.52-104.19,15.52-104.19s-42-29.14,39.62-20.51c23.38,2.48,56.89,8,104.41,18.25,31.45,6.77,69,15.58,113.92,26.89,29.37,7.41,56.3,14.4,81,21,142.14,37.93,210.35,62.63,243.09,77.51a55.64,55.64,0,0,1,32.26,44.15c12.37,105.65,74,359.73,90.71,427.86C2040.82,2374.05,2041.33,2376.12,2041.52,2376.87Z"/><path class="cls-14" d="M2124.83,2463.83c4.39-1.39,5.05-1.09,5.87,3.2-.85,1.24-1.76,2.45-2.53,3.73-1.08,1.8-2.67,2.63-4.63,1.63s-1.9-2.73-.91-4.55c.68-1.26,2.21-2.37,1.46-4-.9-1.93-4.41-2-6-.37-1.71,1.85-2.65,5.95-6.27,3.77-3.91-2.36-.13-4.83,1.07-7.14a9.15,9.15,0,0,0,.39-1.15c3.3-1.61,5.4-1.08,6,2.75"/><path class="cls-18" d="M2079.46,2436.14q1.64,1.7,3.28,3.38c-1,.95-1.93,1.95-3,2.86-1.42,1.25-2.14,2.68-.8,4.25s3.21,1.48,4.91.21c1.46-1.09,2.9-2.2,4.35-3.3l3.75,2.95c-.83.92-1.6,1.91-2.51,2.75-1.69,1.58-2.94,3.38-.85,5.21s3.95.46,5.54-1.13c1.07-1.09,2.17-2.15,3.26-3.23l4.73,2.68c-1.16,1.46-2.39,2.89-3.47,4.41a2.68,2.68,0,0,0,.44,4,3,3,0,0,0,4.22-.18c1.58-1.51,3-3.18,4.48-4.79l5.5,2.76a9.15,9.15,0,0,1-.39,1.15c-1.2,2.31-5,4.78-1.07,7.14,3.62,2.18,4.56-1.92,6.27-3.77,1.54-1.66,5.05-1.56,6,.37.75,1.64-.78,2.75-1.46,4-1,1.82-1.11,3.52.91,4.55s3.55.17,4.63-1.63c.77-1.28,1.68-2.49,2.53-3.73l4.94,1.85c.39,1.53-.95,2.44-1.52,3.63-.88,1.83-1,3.51,1.14,4.54,1.89.93,3.27,0,4.35-1.53.93-1.35,1.36-3,2.88-4l5.07,1.84c.42,1.65-.76,2.87-1.38,4.23-.83,1.81-.86,3.52,1.21,4.46s3.5,0,4.47-1.83c.83-1.53,1.76-3,2.65-4.51,1.77,1,73.12,17.53,79,34.66l-61.42.42q-76.82.49-153.64,1-19.9.12-39.82.3c-.21-15.84-2.7-88.18-.27-92.12l-.3.1c1-.62,2-1.24,3-1.84a6.66,6.66,0,0,1,1.51-.37q34.61-.26,69.21-.44a9.75,9.75,0,0,1,4.13.64c.74.36-.37.55-.77.71l3.92-3.5c1.25,1.61,2.42,3.28,3.8,4.79,2.44,2.66,4.11,6.15,8.25,7.05l1.93,2.1.12.07v-.13l1.55,2.22c-1.11,1-2.19,2.06-3.35,3-1.65,1.41-2.66,3-.88,4.82,1.6,1.64,3.28,1.05,4.89-.19C2076.72,2438,2078.1,2437.1,2079.46,2436.14Zm-90.17,43.18c2.84,4.28,5.47,8,7.8,11.88,1.18,2,2.36,2.43,4.79,2,15-2.84,30.08-5.22,45-8.27a30.25,30.25,0,0,1,21.95,3.52c6.91,3.94,14.12,7.37,21.28,10.89a37.84,37.84,0,0,0,14.55,3.48c6.73.42,13.12-1.62,19.7-2.28a1.84,1.84,0,0,0,1.52-1.25c1.84-3.73,2.48-7.51.22-11.31-1.16-1.95-2.44-2.55-5.18-1.91-8.6,2-17.41,3.26-25.85-.58a137.6,137.6,0,0,1-15.91-8.26,49.12,49.12,0,0,0-34.2-7C2026.61,2472.9,2008.32,2476.16,1989.29,2479.32Z"/><path class="cls-19" d="M1978.65,2512.09q19.9-.15,39.82-.3,76.81-.51,153.64-1l61.42-.42c1,4.54.8,9.16.51,13.72-.27,4.37-3.71,6.81-9.06,6.88q-22.72.32-45.46.51-94.18.68-188.36,1.28a25.61,25.61,0,0,1-6-.49c-3.92-.93-7-4.61-6.41-8.16C1979.43,2520.06,1978.51,2516.09,1978.65,2512.09Z"/><path class="cls-14" d="M2107.83,2456.18c-1.49,1.61-2.9,3.28-4.48,4.79a3,3,0,0,1-4.22.18,2.68,2.68,0,0,1-.44-4c1.08-1.52,2.31-2.95,3.47-4.41C2105.33,2452,2107.32,2453,2107.83,2456.18Z"/><path class="cls-14" d="M2142.49,2471.53c-1.52,1-1.95,2.64-2.88,4-1.08,1.53-2.46,2.46-4.35,1.53-2.11-1-2-2.71-1.14-4.54.57-1.19,1.91-2.1,1.52-3.63C2140.14,2466.64,2141.28,2467.09,2142.49,2471.53Z"/><path class="cls-14" d="M2154.51,2475.72c-.89,1.51-1.82,3-2.65,4.51-1,1.82-2.45,2.74-4.47,1.83s-2-2.65-1.21-4.46c.62-1.36,1.8-2.58,1.38-4.23C2150.8,2471.76,2153.28,2472.12,2154.51,2475.72Z"/><path class="cls-14" d="M2097.43,2450.09c-1.09,1.08-2.19,2.14-3.26,3.23-1.59,1.59-3.44,3-5.54,1.13s-.84-3.63.85-5.21c.91-.84,1.68-1.83,2.51-2.75C2095.48,2445.44,2097.28,2446.67,2097.43,2450.09Z"/><path class="cls-14" d="M2079.46,2436.14c-1.36,1-2.74,1.88-4.06,2.89-1.61,1.24-3.29,1.83-4.89.19-1.78-1.85-.77-3.41.88-4.82,1.16-1,2.24-2,3.35-3C2078.59,2431,2080.18,2432.54,2079.46,2436.14Z"/><path class="cls-14" d="M2088.24,2443.54c-1.45,1.1-2.89,2.21-4.35,3.3-1.7,1.27-3.47,1.48-4.91-.21s-.62-3,.8-4.25c1-.91,2-1.91,3-2.86C2087.25,2438.6,2088.17,2439.27,2088.24,2443.54Z"/><path class="cls-14" d="M2071.14,2427.11c-4.14-.9-5.81-4.39-8.25-7.05-1.38-1.51-2.55-3.18-3.8-4.79,1-1.46,1.81-3.16,3.34-.35s3,5.35,6.25,6.85C2070.56,2422.63,2070.69,2425.15,2071.14,2427.11Z"/><path class="cls-14" d="M2073.19,2429.15v.13l-.12-.07,0-.17Z"/><path class="cls-14" d="M1978.08,2420.07l.3-.1Z"/><path class="cls-2" d="M1989.29,2479.32c19-3.16,37.32-6.42,55.69-9.17a49.12,49.12,0,0,1,34.2,7,137.6,137.6,0,0,0,15.91,8.26c8.44,3.84,17.25,2.6,25.85.58,2.74-.64,4,0,5.18,1.91,2.26,3.8,1.62,7.58-.22,11.31a1.84,1.84,0,0,1-1.52,1.25c-6.58.66-13,2.7-19.7,2.28a37.84,37.84,0,0,1-14.55-3.48c-7.16-3.52-14.37-6.95-21.28-10.89a30.25,30.25,0,0,0-21.95-3.52c-14.94,3-30,5.43-45,8.27-2.43.46-3.61,0-4.79-2C1994.76,2487.32,1992.13,2483.6,1989.29,2479.32Z"/><path class="cls-17" d="M1879.3,1302.05l0,0c-.44,1.64-1.61,3-3.86,4.38-12.31,7.45-30.23,0-30.23,0s0,.14-.13.44c-1.71,5.81-20.74,67.75-50.63,57.79-11.28-3.76-23-10.22-33.76-16.44-19.23-11.07-35.71-21.35-42.4-14.18-6,6.44-21,40.13-32.52,67.54-8.53,20.19-15.26,37-15.26,37s-101.53-91.83-80.63-109a59.61,59.61,0,0,1,6.8-4.69c8.14-4.87,19.34-9.83,31.15-15.3,21.34-9.91,50.25-21.88,57.45-38.09a18.26,18.26,0,0,0,1.28-11.35c-13.23-63.85,78.29-109.78,94.88-117.54,1.65-.77,2.56-1.16,2.56-1.16l2.72.31,84.63,9.4s4.76,12.52,7,33a197.74,197.74,0,0,1-1.77,55.79C1869.23,1282,1881.31,1294.74,1879.3,1302.05Z"/><path class="cls-20" d="M1878.33,1184.2c-18-10.37-77.62-39.31-105.93,11,0,0-14.18,18.68-18.28,47,0,0-7.47-20.54-29.87-19-17.74,1.18-20.34,50.38-34.61,52.06-1.73.21-3.19-1.18-4.38-3.76a18.26,18.26,0,0,0,1.28-11.35c-13.23-63.85,78.29-109.78,94.88-117.54l5.28-.85,84.63,9.4S1876.09,1163.68,1878.33,1184.2Z"/><path class="cls-20" d="M1760.67,1348.22v0c-19.23-11.07-35.71-21.35-42.4-14.18-6,6.44-21,40.13-32.52,67.54-25.38-5.52-76.16-23.15-89.09-76.71,8.14-4.87,19.34-9.83,31.15-15.3a125.3,125.3,0,0,0,3,26.91c4.57,20.34,13.62,29,29.46,27,17.49-2.17,36.61-46.55,35.65-50.13C1695.87,1313.42,1755.78,1329.29,1760.67,1348.22Z"/><path class="cls-21" d="M1696.87,1375.84s-31.18,11.73-54.66-9.67-21.51-53.3-21.51-53.3l-30.84,16.71s44.53,77.92,76.65,72,23-16.84,23-16.84Z"/><path class="cls-22" d="M1890,1179.89a96.46,96.46,0,0,0-106.39-15.3c-31.73,15.3-29.48,77.65-29.48,77.65s-5.24-1.12-11.2-17.55-18.67-10.45-18.67-10.45c-17.37,6.22-22.5,23.78-24,33.94a62.82,62.82,0,0,1-6.94,21.15c-12.16,22-21.28,14.81-21.28,14.81s-5.68-24.07-11.8-51.93c-2.88-13.2-5.88-27.25-8.38-40-7.85-39.57,26.12-81,81.44-98.18a91.47,91.47,0,0,1,37.35-4c33.36,3.53,55.81,25.36,74.56,27.87,25,3.35,79.51-12.7,106.39,5.23a15.39,15.39,0,0,1,4.75,4.91C1970,1150.83,1919.64,1206.44,1890,1179.89Z"/><path class="cls-23" d="M1890,1179.89a96.46,96.46,0,0,0-106.39-15.3c-31.73,15.3-29.48,77.65-29.48,77.65s-5.24-1.12-11.2-17.55-18.67-10.45-18.67-10.45c-17.37,6.22-22.5,23.78-24,33.94a62.82,62.82,0,0,1-6.94,21.15c-12.16,22-21.28,14.81-21.28,14.81s-5.68-24.07-11.8-51.93c25.75-4.38,70.46-17.48,93.53-56.42,33.58-56.74,104.09-26.13,140-7.1s62.61-40.62,62.61-40.62C1970,1150.83,1919.64,1206.44,1890,1179.89Z"/><path class="cls-20" d="M1879.28,1302.07c-.44,1.64-1.61,3-3.86,4.38-12.31,7.45-30.23,0-30.23,0s0,.14-.13.44l-5.34-4.84C1867.74,1308.22,1878.82,1302.31,1879.28,1302.07Z"/><path class="cls-24" d="M1695.2,1379.63s7.4,26.11,14.12,100,11.33,121.69,24,120.94,120.36-5.95,126.22,0v50.76s-193.48,22.4-212.89-11.94S1677.34,1378.17,1695.2,1379.63Z"/><path class="cls-25" d="M1686.61,1425s-6.41,164.91,15.24,172.85,117.19,20.46,122.44,32.58,5.23,28.08,5.23,28.08-120.7-4.94-149.94-25.1S1686.61,1425,1686.61,1425Z"/><path class="cls-17" d="M2000.05,1660.1h-42.39l-24-10s-35.34,35.46-60.77,35-40-7.07-62.2-6.13a12.45,12.45,0,0,1-6.93-1.39c-11-6.4,1.75-32.53,1.75-32.53s51.35,4.22,90.47-27.8c0,0,26.1-29.87,43.21-22.24s51.49,32.13,60.9,41.56S2000.05,1660.1,2000.05,1660.1Z"/><path class="cls-20" d="M1984.77,1660.32h-25.59l-25.4-10.58s-35.58,37.44-64.44,35.34c-26.82-1.94-40.07-6.59-63.46-5.6-3.15.13-7.53.34-9.32-.72,2.51-4.18,10.83-9.34,37.8-5,41.83,6.7,79.53-17.93,93-29.5C1937.28,1635.67,1969,1651.54,1984.77,1660.32Z"/><path class="cls-26" d="M1848.18,2030.63c-4.47-50-23.89-42.55-23.89-42.55-116.42,16.31-305.36-26.5-307.92-27.08-14.62-5.32-28.33-11-40.73-17-69.47-33.45-15.18-77.14,12.69-87.1,85.34-30.48,138.47-17.59,185.16-37.5,39.15-16.72,60.62-31.49,60.62-31.49-28.73-7.76-60.65-16.1-96.14-25-349.41-88.09-258-24.63-258-24.63s-2.63,5.63-5.86,15c-81.61-8.63-39.62,20.51-39.62,20.51s-52.26,112,23.9,170.22c28.71,22,99.93,36.49,177.49,46.07h0l1.93.23,9,1.07,3,.35,7.9.89,3.13.35,8.89.94,3.21.33c3,.32,6.11.62,9.16.92l3.17.31c3.12.31,6.24.6,9.36.89l2.63.24,9.92.89,1.38.12,9.93.84,1.28.1c3.55.29,7.07.58,10.59.85l1.34.1,10.61.81,1,.07,10.93.78h0c19,1.32,37.13,2.4,53.94,3.29h.08c3.35.18,6.64.34,9.88.5h0c53.71,2.66,91.23,3.26,91.23,3.26s12.88,259.82,154.72,388.24a72.94,72.94,0,0,0,9,1.07C1916.74,2345.59,1852.66,2080.64,1848.18,2030.63Z"/><path class="cls-13" d="M1612.72,1809.75s-181.13,29.76-228.16,26c-30.12-2.39-53,23.38-65.55,42.23-9-51.77,15.52-104.19,15.52-104.19s-42-29.14,39.62-20.51c23.38,2.48,56.89,8,104.41,18.25Z"/><path class="cls-27" d="M1692.89,1690.19c-8.2,15.68,22.4,88.84,22.4,88.84-83.53,42.75-223.86,43.79-308.14,34.74h0c-11.38-1.22-21.73-2.62-30.78-4.13-76.14-12.69-67.94-65.71-67.94-65.71,21.65-272.49,109-389,203.82-418.83s105.2-10.71,105.2-10.71c5.16,89.33,75.9,69.55,75.9,69.55-13.78,49.88-14.66,220.39-14.66,220.39s34.39,3.73,71.72,9a229.61,229.61,0,0,1,67.2,20.9l6.71,56Z"/><path class="cls-28" d="M1692.89,1690.19c-8.2,15.68,22.4,88.84,22.4,88.84-83.53,42.75-223.86,43.79-308.14,34.74,82.33-15.29,50.94-175.3,50.94-175.3l36.91,14.62a336.94,336.94,0,0,0,114.75,23.55l213.62,5.94.92,7.61Z"/><path class="cls-28" d="M1524.92,1384.83a8.79,8.79,0,0,1,3,.75C1527,1385.32,1526,1385.08,1524.92,1384.83Z"/><path class="cls-28" d="M1679.58,1551.33l-.75,43.72-.17,9.28-106.71-9s-12-31.35-15.68-120.94c-1.23-29.61-5.07-49.44-9.67-62.71h0c-6.45-18.64-14.39-24.34-18.64-26.1,19.44,5.49,21.23,17.56,59.08,101.52C1626.73,1575.21,1679.58,1551.33,1679.58,1551.33Z"/><path class="cls-28" d="M1572,1595.37s-19.91-2.24-32.36,2.24,22.92-48.15,23.12-46.68S1568.46,1588.15,1572,1595.37Z"/><path class="cls-29" d="M1442,1480.64s24.89,207.06,60.72,209.54h19.91V1730s-48.9,9.42-64.58-91.53S1442,1480.64,1442,1480.64Z"/><path class="cls-25" d="M1678.83,1595.05l-.17,9.28-106.71-9s-12-31.35-15.68-120.94c-1.23-29.61-5.07-49.44-9.67-62.71.54.69,18.06,23.64,29.83,148.57,0,0-1.37,25.54,25.82,29.94C1620.87,1593.25,1657.57,1594.53,1678.83,1595.05Z"/><path class="cls-30" d="M2331.45,1687.18h-407a13,13,0,0,1-12.92-12.93h0a13,13,0,0,1,12.92-12.92h407a13,13,0,0,1,12.93,12.92h0A13,13,0,0,1,2331.45,1687.18Z"/><path class="cls-31" d="M2331.45,1687.18h-407a7.17,7.17,0,1,1,0-12.19h407a7.17,7.17,0,1,1,0,12.19Z"/><path class="cls-31" d="M2341.5,1661.33H2016c-9.3,0-16-7.62-14.83-16.92l25.95-210.85c1.14-9.3,9.69-16.91,19-16.91h325.52a14.68,14.68,0,0,1,14.83,16.91l-26,210.85C2359.35,1653.71,2350.8,1661.33,2341.5,1661.33Z"/><path class="cls-32" d="M2341.5,1661.33H2025.58c-9.3,0-16-7.62-14.83-16.92l26-210.85c1.14-9.3,9.69-16.91,19-16.91h315.92a14.68,14.68,0,0,1,14.83,16.91l-26,210.85C2359.35,1653.71,2350.8,1661.33,2341.5,1661.33Z"/><path class="cls-33" d="M2324.29,1661.33h-32.51l-256.6-215.4,1.52-12.37a19,19,0,0,1,4.45-9.91l283.14,237.68Zm-246.22-244.68,279.91,235a18.31,18.31,0,0,0,2.51-7.21l4-32.78-232.27-195Z"/><path class="cls-32" d="M1998.43,1687.18h-74a13,13,0,0,1-12.92-12.93h0a13,13,0,0,1,12.92-12.92h74a13,13,0,0,1,12.93,12.92h0A13,13,0,0,1,1998.43,1687.18Z"/><rect class="cls-34" x="1992.79" y="1654.86" width="351.59" height="12.92" rx="6.46"/><path class="cls-35" d="M2205.26,1506.49c-18,0-34,14.55-35.83,32.5s11.22,32.5,29.17,32.5,34-14.55,35.83-32.5S2223.21,1506.49,2205.26,1506.49Z"/><polygon class="cls-36" points="1564.94 2524.1 1521.68 2524.1 1705.42 1739.79 1766.73 1739.79 1564.94 2524.1"/><polygon class="cls-36" points="3099.92 2524.1 3143.17 2524.1 2959.44 1739.79 2898.14 1739.79 3099.92 2524.1"/><rect class="cls-8" x="1521.68" y="1690.7" width="1621.49" height="50.72"/><rect class="cls-37" x="1521.68" y="1725.54" width="1621.49" height="15.88"/><g class="cls-38"><path class="cls-39" d="M1553.16,1140.83a60.77,60.77,0,1,0,17,65.39l18,6.11,6.71-7.53-21.33-19A60.65,60.65,0,0,0,1553.16,1140.83Z"/><path class="cls-6" d="M1546.45,1148.36a60.77,60.77,0,1,0,17,65.39l24.7-1.42-21.33-19A60.65,60.65,0,0,0,1546.45,1148.36Z"/><path class="cls-2" d="M1481,1225a30.78,30.78,0,0,1-6.56-.67v-9.82l2.17.44a12.26,12.26,0,0,0,2.5.24q3.13,0,4.48-1.89t1.34-6.46v-43.28h12.7v42.19q0,9.49-4.16,14.38T1481,1225Z"/><path class="cls-2" d="M1535,1199.18q0,5.82-4,8.8t-11.39,3a49.13,49.13,0,0,1-7-.43,29.83,29.83,0,0,1-6.08-1.58v-10A38.49,38.49,0,0,0,1513,1201a27.2,27.2,0,0,0,6.19.83c2.71,0,4.06-.62,4.06-1.86a2.08,2.08,0,0,0-1.13-1.71,52.57,52.57,0,0,0-6.61-2.92c-3.32-1.37-5.65-2.92-7-4.66a10.61,10.61,0,0,1-2-6.6,9.16,9.16,0,0,1,3.9-7.87q3.9-2.82,11-2.82a28,28,0,0,1,6.73.79,39.11,39.11,0,0,1,6.54,2.29l-3.39,8.06a37,37,0,0,0-5.28-1.91,17.61,17.61,0,0,0-4.54-.78c-2,0-3.07.5-3.07,1.5a1.89,1.89,0,0,0,1.07,1.59,60.74,60.74,0,0,0,6.19,2.67,23.37,23.37,0,0,1,5.68,3.07,9.3,9.3,0,0,1,2.75,3.53A12.54,12.54,0,0,1,1535,1199.18Z"/></g><path class="cls-40" d="M1893.12,950h-79.06a11.21,11.21,0,0,0-11.21,11.21v47.35a11.21,11.21,0,0,0,11.21,11.21l-4.82,22.27h8.46l24.09-22.27h51.33a11.21,11.21,0,0,0,11.22-11.21V961.25A11.21,11.21,0,0,0,1893.12,950Z"/><path class="cls-41" d="M1884.67,950H1805.6a11.21,11.21,0,0,0-11.21,11.21v47.35a11.21,11.21,0,0,0,11.21,11.21h3.64v22.27l24.09-22.27h51.34a11.21,11.21,0,0,0,11.21-11.21V961.25A11.21,11.21,0,0,0,1884.67,950Z"/><path class="cls-2" d="M1827.43,997.44h-3.53v-9.69H1814v9.69h-3.52v-21.5H1814v8.79h9.91v-8.79h3.53Z"/><path class="cls-2" d="M1840.52,997.44H1837V979h-6.32v-3h16.16v3h-6.32Z"/><path class="cls-2" d="M1859.43,997.44l-6.23-18h-.12q.26,4,.25,7.5v10.46h-3.19v-21.5h4.95l6,17.1h.08l6.15-17.1h5v21.5h-3.38V986.81c0-1.07,0-2.47.08-4.18s.1-2.76.14-3.12H1869l-6.45,17.93Z"/><path class="cls-2" d="M1877.93,997.44v-21.5h3.52v18.48h9.1v3Z"/><g class="cls-42"><path class="cls-43" d="M1767.75,934.66a48.39,48.39,0,1,0-54.56,48l6.5,20.66h7.55l6.51-22.43A48.4,48.4,0,0,0,1767.75,934.66Z"/><path class="cls-18" d="M1760.2,934.66a48.39,48.39,0,1,0-54.56,48l14,20.66,6.51-22.43A48.4,48.4,0,0,0,1760.2,934.66Z"/><path class="cls-2" d="M1699.55,928.32a8.53,8.53,0,0,1-2.51,6.58c-1.68,1.54-4,2.32-7.13,2.32H1688v8.42h-6.86V920.25h8.79q4.8,0,7.22,2.1A7.49,7.49,0,0,1,1699.55,928.32Zm-11.57,3.3h1.25a3.46,3.46,0,0,0,2.46-.86,3.19,3.19,0,0,0,.91-2.4c0-1.72-.95-2.57-2.85-2.57H1688Z"/><path class="cls-2" d="M1725.35,945.64h-6.89V935.29h-8v10.35h-6.9V920.25h6.9v9.41h8v-9.41h6.89Z"/><path class="cls-2" d="M1749.27,928.32a8.53,8.53,0,0,1-2.51,6.58c-1.67,1.54-4,2.32-7.13,2.32h-1.93v8.42h-6.86V920.25h8.79q4.81,0,7.23,2.1A7.48,7.48,0,0,1,1749.27,928.32Zm-11.57,3.3H1739a3.46,3.46,0,0,0,2.46-.86,3.15,3.15,0,0,0,.91-2.4c0-1.72-1-2.57-2.85-2.57h-1.77Z"/></g><path class="cls-6" d="M1627.17,937.3a76.53,76.53,0,1,0-.09,114.91l31.31,13.89,7.89-9L1646.47,1026A76.56,76.56,0,0,0,1627.17,937.3Z"/><path class="cls-7" d="M1619.28,946.26a76.52,76.52,0,1,0-.09,114.91l39.2,4.93-19.81-31.18A76.56,76.56,0,0,0,1619.28,946.26Z"/><path class="cls-2" d="M1538.81,993.44a7.71,7.71,0,0,0-6.73,3.53q-2.41,3.54-2.42,9.75,0,12.91,9.82,12.91a20.21,20.21,0,0,0,5.76-.83,55.92,55.92,0,0,0,5.59-2V1027a30.82,30.82,0,0,1-12.66,2.48q-10.12,0-15.53-5.87t-5.4-17a27,27,0,0,1,2.62-12.21,18.7,18.7,0,0,1,7.52-8.09,22.73,22.73,0,0,1,11.55-2.83,31.79,31.79,0,0,1,13.86,3.15l-3.7,9.51a41.74,41.74,0,0,0-5-2A17.28,17.28,0,0,0,1538.81,993.44Z"/><path class="cls-2" d="M1568.3,1010.91h-11.38v-8.2h11.38V991.48h8.23v11.23h11.38v8.2h-11.38v11h-8.23Z"/><path class="cls-2" d="M1603.76,1010.91h-11.38v-8.2h11.38V991.48H1612v11.23h11.38v8.2H1612v11h-8.23Z"/><path class="cls-44" d="M2728.26,1657.91H2619.92a16.2,16.2,0,0,0,0,32.39h108.34a16.2,16.2,0,0,0,0-32.39Z"/><path class="cls-35" d="M2485.91,1659.8h138.55a14.35,14.35,0,0,1,14.31,14.3h0a14.35,14.35,0,0,1-14.31,14.31H2485.91Z"/><path class="cls-45" d="M2485.91,1657.91a1.89,1.89,0,1,0,0,3.77h138.55a12.43,12.43,0,0,1,0,24.85H2485.91a1.89,1.89,0,1,0,0,3.77h138.55a16.2,16.2,0,0,0,0-32.39Z"/><path class="cls-45" d="M2723.27,1674.1a16.25,16.25,0,0,0-16.2-16.19h14.09a16.2,16.2,0,0,1,0,32.39h-14.09a16.25,16.25,0,0,0,16.2-16.2Z"/><path class="cls-45" d="M2702.86,1674.1a16.25,16.25,0,0,0-16.2-16.19h14.09a16.2,16.2,0,0,1,0,32.39h-14.09a16.25,16.25,0,0,0,16.2-16.2Z"/><path class="cls-46" d="M2514.39,1629.55h94.87a14.18,14.18,0,0,1,0,28.36h-94.87a14.18,14.18,0,0,1,0-28.36Z"/><path class="cls-35" d="M2726.61,1631.2H2605.28a12.56,12.56,0,0,0-12.52,12.53h0a12.56,12.56,0,0,0,12.52,12.53h121.33Z"/><path class="cls-47" d="M2726.61,1629.55a1.65,1.65,0,0,1,0,3.3H2605.28a10.88,10.88,0,0,0,0,21.76h121.33a1.65,1.65,0,1,1,0,3.3H2605.28a14.18,14.18,0,0,1,0-28.36Z"/><path class="cls-47" d="M2518.76,1643.73a14.22,14.22,0,0,1,14.19-14.18h-12.34a14.18,14.18,0,0,0,0,28.36H2533a14.22,14.22,0,0,1-14.19-14.18Z"/><path class="cls-47" d="M2536.63,1643.73a14.22,14.22,0,0,1,14.18-14.18h-12.33a14.18,14.18,0,0,0,0,28.36h12.33a14.22,14.22,0,0,1-14.18-14.18Z"/><path class="cls-32" d="M2689.76,1601.19h-70.55a14.18,14.18,0,0,0,0,28.36h70.55a14.18,14.18,0,0,0,0-28.36Z"/><path class="cls-35" d="M2538.48,1602.84h84.71a12.57,12.57,0,0,1,12.53,12.53h0a12.57,12.57,0,0,1-12.53,12.53h-84.71Z"/><path class="cls-48" d="M2538.48,1601.19a1.65,1.65,0,0,0,0,3.3h84.71a10.88,10.88,0,0,1,0,21.75h-84.71a1.66,1.66,0,0,0,0,3.31h84.71a14.18,14.18,0,0,0,0-28.36Z"/><path class="cls-48" d="M2685.39,1615.37a14.2,14.2,0,0,0-14.18-14.18h12.34a14.18,14.18,0,0,1,0,28.36h-12.34a14.22,14.22,0,0,0,14.18-14.18Z"/><path class="cls-48" d="M2667.52,1615.37a14.2,14.2,0,0,0-14.18-14.18h12.34a14.18,14.18,0,0,1,0,28.36h-12.34a14.22,14.22,0,0,0,14.18-14.18Z"/><rect class="cls-49" x="2445.56" y="759.52" width="1161.75" height="680.78" rx="5.07"/><path class="cls-50" d="M3574.26,686.11H2478.6a33,33,0,0,0-33,33V807.8H3607.3V719.15A33,33,0,0,0,3574.26,686.11Z"/><path class="cls-51" d="M3574.26,686.11H2478.6a33,33,0,0,0-33,33v1.18a33,33,0,0,1,33-33H3574.26a33,33,0,0,1,33,33v-1.18A33,33,0,0,0,3574.26,686.11Z"/><rect class="cls-6" x="2492.59" y="844.37" width="1070.28" height="556.21" rx="4.18"/><circle class="cls-22" cx="2510.75" cy="746.96" r="20.83"/><circle class="cls-27" cx="2606.01" cy="746.96" r="20.83"/><circle class="cls-52" cx="2701.26" cy="746.96" r="20.83"/><path class="cls-41" d="M2549,932.47a4.36,4.36,0,0,1-3.09-1.28l-25.55-25.55a4.36,4.36,0,0,1,0-6.17L2546,873.9a4.36,4.36,0,0,1,6.17,6.17l-22.49,22.49L2552.1,925a4.37,4.37,0,0,1-3.08,7.45Z"/><path class="cls-41" d="M2613.34,932.47a4.37,4.37,0,0,1-3.09-7.45l22.46-22.46-22.49-22.49a4.37,4.37,0,0,1,6.18-6.17L2642,899.47a4.36,4.36,0,0,1,0,6.17l-25.54,25.55A4.38,4.38,0,0,1,2613.34,932.47Z"/><path class="cls-41" d="M2570.36,936.85a4.14,4.14,0,0,1-1.5-.27,4.36,4.36,0,0,1-2.61-5.59l20.3-55.51a4.37,4.37,0,1,1,8.2,3L2574.46,934A4.37,4.37,0,0,1,2570.36,936.85Z"/><circle class="cls-41" cx="2666.05" cy="932.94" r="7.21"/><circle class="cls-41" cx="2695.91" cy="932.94" r="7.21"/><circle class="cls-41" cx="2725.77" cy="932.94" r="7.21"/><path class="cls-41" d="M3305,989.28h-768.7a4.37,4.37,0,1,1,0-8.73H3305a4.37,4.37,0,1,1,0,8.73Z"/><path class="cls-41" d="M3410.82,989.28h-59.24a4.37,4.37,0,0,1,0-8.73h59.24a4.37,4.37,0,1,1,0,8.73Z"/><path class="cls-41" d="M3519.7,989.28h-75.61a4.37,4.37,0,0,1,0-8.73h75.61a4.37,4.37,0,1,1,0,8.73Z"/><path class="cls-7" d="M3017.17,1049.77H2536.26a4.37,4.37,0,1,1,0-8.73h480.91a4.37,4.37,0,0,1,0,8.73Z"/><path class="cls-7" d="M3174.91,1049.77h-86.19a4.37,4.37,0,1,1,0-8.73h86.19a4.37,4.37,0,1,1,0,8.73Z"/><path class="cls-7" d="M3174.91,1084.55h-234a4.37,4.37,0,1,1,0-8.73h234a4.37,4.37,0,1,1,0,8.73Z"/><path class="cls-7" d="M2908.76,1084.55H2861.6a4.37,4.37,0,0,1,0-8.73h47.16a4.37,4.37,0,0,1,0,8.73Z"/><path class="cls-7" d="M2824.14,1084.55H2777a4.37,4.37,0,0,1,0-8.73h47.16a4.37,4.37,0,1,1,0,8.73Z"/><path class="cls-7" d="M2739.52,1084.55h-47.15a4.37,4.37,0,1,1,0-8.73h47.15a4.37,4.37,0,1,1,0,8.73Z"/><path class="cls-7" d="M2654.91,1084.55h-47.16a4.37,4.37,0,1,1,0-8.73h47.16a4.37,4.37,0,0,1,0,8.73Z"/><path class="cls-27" d="M3337,1126.84H2607.75a4.37,4.37,0,1,1,0-8.73H3337a4.37,4.37,0,0,1,0,8.73Z"/><path class="cls-7" d="M2553.27,1084.55h-17a4.37,4.37,0,1,1,0-8.73h17a4.37,4.37,0,1,1,0,8.73Z"/><path class="cls-7" d="M2553.27,1126.84h-17a4.37,4.37,0,1,1,0-8.73h17a4.37,4.37,0,1,1,0,8.73Z"/><path class="cls-7" d="M2553.27,1169.13h-17a4.37,4.37,0,1,1,0-8.73h17a4.37,4.37,0,1,1,0,8.73Z"/><path class="cls-7" d="M2553.27,1211.42h-17a4.37,4.37,0,1,1,0-8.73h17a4.37,4.37,0,1,1,0,8.73Z"/><path class="cls-27" d="M3481.9,1126.84H3381.2a4.37,4.37,0,0,1,0-8.73h100.7a4.37,4.37,0,0,1,0,8.73Z"/><path class="cls-27" d="M2807.79,1169.13H2606a4.37,4.37,0,1,1,0-8.73h201.78a4.37,4.37,0,0,1,0,8.73Z"/><path class="cls-27" d="M2807.79,1212.46H2606a4.37,4.37,0,0,1,0-8.74h201.78a4.37,4.37,0,0,1,0,8.74Z"/><path class="cls-27" d="M2807.79,1255.78H2606a4.37,4.37,0,1,1,0-8.73h201.78a4.37,4.37,0,0,1,0,8.73Z"/><path class="cls-27" d="M2807.79,1299.11H2606a4.37,4.37,0,0,1,0-8.74h201.78a4.37,4.37,0,0,1,0,8.74Z"/><path class="cls-18" d="M3351.58,1299.11H2940.91a4.37,4.37,0,1,1,0-8.74h410.67a4.37,4.37,0,0,1,0,8.74Z"/><path class="cls-18" d="M3351.58,1255.78h-167.2a4.37,4.37,0,1,1,0-8.73h167.2a4.37,4.37,0,1,1,0,8.73Z"/><path class="cls-18" d="M3351.58,1211.42H3285.2a4.37,4.37,0,0,1,0-8.73h66.38a4.37,4.37,0,1,1,0,8.73Z"/><rect class="cls-18" x="2706.53" y="1249.15" width="74.32" height="7.7" transform="translate(-82.39 2307.08) rotate(-45)"/><rect class="cls-18" x="2815.8" y="1504.24" width="303.02" height="7.7" transform="translate(643.65 3891.33) rotate(-72.67)"/><rect class="cls-18" x="2892.55" y="1153.95" width="7.7" height="275.05" transform="translate(312.92 3130.67) rotate(-59.48)"/><path class="cls-36" d="M2665.89,1270.32H2734a0,0,0,0,1,0,0v40.9a16,16,0,0,1-16,16h-36a16,16,0,0,1-16-16v-40.9A0,0,0,0,1,2665.89,1270.32Z" transform="translate(4076.96 3959.66) rotate(-143.05)"/><path class="cls-18" d="M2565.62,1310.25h194.21a0,0,0,0,1,0,0v40.22a35.78,35.78,0,0,1-35.78,35.78H2601.41a35.78,35.78,0,0,1-35.78-35.78v-40.22a0,0,0,0,1,0,0Z" transform="translate(3980.29 4026.29) rotate(-143.05)"/><path class="cls-36" d="M2909.25,1663.19l-.09-7.19a12.56,12.56,0,0,1,25.12-.33l.09,7.19a28,28,0,0,1,23.63,27.3l-71.65.93A28,28,0,0,1,2909.25,1663.19Z"/><circle class="cls-36" cx="2776.34" cy="1221.6" r="12.05"/><circle class="cls-36" cx="3012.45" cy="1361.34" r="12.05" transform="translate(-14.2 2690.81) rotate(-48.03)"/><path class="cls-53" d="M1845.19,1117.93s-63.61,7.86-74.56-27.87C1804,1093.59,1826.44,1115.42,1845.19,1117.93Z"/><g class="cls-54"><path class="cls-41" d="M3339.8,2288.6s38.93-176.84,115-159.16S3402.17,2262.45,3339.8,2288.6Z"/><path class="cls-55" d="M3349.08,2225.65s8.28-84.5,39.76-155.74c24-54.32,67.93-120.94,97.75-96.09,46,38.31-1.57,91.48-23.19,119.29C3440.2,2122.93,3405.41,2152.75,3349.08,2225.65Z"/><path class="cls-55" d="M3311,2190.86s-87.81-193.85-87.81-311.48,107.7-72.9,116,6.63S3330.86,2121.27,3311,2190.86Z"/><path class="cls-41" d="M3291.09,2233.93s5-137.51-19.88-218.69-91.12-64.62-99.41-29.82S3176.77,2103.05,3291.09,2233.93Z"/><path class="cls-41" d="M3351.27,2127.43s-19.61-136.22-.5-219.81,94-74.66,106.71-41S3464.07,1984.2,3351.27,2127.43Z"/><path class="cls-56" d="M3305.88,2373.62l-2.25-.22q.59-17.68,1.07-34.6c-1.65-51.42-16-160.74-91.33-330.24a1.13,1.13,0,1,1,2.07-.92c64.91,146,84.64,247.61,89.95,306.07,7.73-303.1-8.85-406.86-9-407.94a1.14,1.14,0,0,1,2.24-.37c.19,1.11,17.71,110.7,8.37,433.59C3307.69,2361.78,3305.94,2373.26,3305.88,2373.62Z"/><path class="cls-57" d="M3321.3,2347.4h-.14a1.15,1.15,0,0,1-1-1.27c.1-.76,10.54-77.21,105.69-173a1.13,1.13,0,0,1,1.61,1.6c-94.54,95.18-104.95,170.93-105,171.68A1.15,1.15,0,0,1,3321.3,2347.4Z"/><path class="cls-55" d="M3292.62,2281.67s-29.53-178.65-106.48-165S3231.72,2252.26,3292.62,2281.67Z"/><path class="cls-58" d="M3308,2341.37a1.14,1.14,0,0,1-1.13-1.06c0-.76-6.44-76.94-95.82-177a1.13,1.13,0,0,1,1.69-1.51c89.95,100.68,96.34,177.58,96.4,178.34a1.15,1.15,0,0,1-1.06,1.22Z"/><path class="cls-59" d="M3315.22,2406.62c0-1.45,0-3.34.05-5.64,1.51-123.84,27.33-263.1,91.33-493.61a1.13,1.13,0,0,1,1.4-.79,1.15,1.15,0,0,1,.79,1.4c-58.42,210.4-85,344.67-90.3,460.58,10.12-75.43,44.84-236.37,122.48-335.79a1.12,1.12,0,0,1,1.59-.2,1.14,1.14,0,0,1,.2,1.59c-91.76,117.51-123.35,321.24-125.21,366.65,0,1.93-.05,3.86-.06,5.77Z"/><path class="cls-4" d="M3238.56,2449.12c0,9.46,34.92,17.13,78,17.13s78-7.67,78-17.13-34.92-17.13-78-17.13S3238.56,2439.66,3238.56,2449.12Z"/><path class="cls-60" d="M3372.17,2355.93c0,37.78-9.78,71.11-24.7,91h-64.13c-14.92-19.87-24.71-53.2-24.71-91a210.13,210.13,0,0,1,1.9-28.31h109.75A210.16,210.16,0,0,1,3372.17,2355.93Z"/><path class="cls-61" d="M3372.17,2355.93c0,37.78-9.78,71.11-24.7,91h-64.13c-14.92-19.87-24.71-53.2-24.71-91a210.13,210.13,0,0,1,1.9-28.31h109.75A210.16,210.16,0,0,1,3372.17,2355.93Z"/><polygon class="cls-60" points="3243.35 2325.89 3385.96 2323.28 3387.62 2349.35 3244.18 2352.83 3243.35 2325.89"/></g><g class="cls-62"><rect class="cls-8" x="2383.12" y="223.9" width="8.53" height="255.35"/><path class="cls-8" d="M2364.69,516.24V476.3c0-13.73,10.22-25,22.68-25s22.7,11.24,22.7,25v39.94Z"/><path class="cls-63" d="M2410.07,516.24V476.3c0-13.73-10.21-25-22.7-25a20.23,20.23,0,0,0-4.8.6c29.85,5.62,27.49,53.08,7.1,57.65s-25-11.23-25-11.23v17.89Z"/><path class="cls-8" d="M2420.53,605.11c0,14.4-14.85,26.08-33.16,26.08s-33.14-11.68-33.14-26.08S2369.09,579,2387.37,579,2420.53,590.7,2420.53,605.11Z"/><path class="cls-8" d="M2335.69,612V521c0-31.31,23.27-56.92,51.68-56.92s51.7,25.61,51.7,56.92v91Z"/><path class="cls-63" d="M2439.07,612V521c0-31.31-23.26-56.92-51.7-56.92a46.49,46.49,0,0,0-11,1.37c68,12.8,62.65,121,16.2,131.42s-56.91-25.6-56.91-25.6V612Z"/><rect class="cls-8" x="1863.49" y="223.9" width="8.53" height="338.59"/><path class="cls-8" d="M1845.06,599.48V559.54c0-13.73,10.22-25,22.68-25s22.7,11.24,22.7,25v39.94Z"/><path class="cls-63" d="M1890.44,599.48V559.54c0-13.73-10.21-25-22.7-25a20.69,20.69,0,0,0-4.8.6c29.85,5.62,27.48,53.08,7.1,57.65s-25-11.23-25-11.23v17.89Z"/><path class="cls-8" d="M1900.91,688.35c0,14.4-14.86,26.08-33.17,26.08s-33.14-11.68-33.14-26.08,14.86-26.08,33.14-26.08S1900.91,673.94,1900.91,688.35Z"/><path class="cls-8" d="M1816.06,695.27v-91c0-31.3,23.27-56.91,51.68-56.91s51.7,25.61,51.7,56.91v91Z"/><path class="cls-63" d="M1919.44,695.27v-91c0-31.3-23.27-56.91-51.7-56.91a46.94,46.94,0,0,0-11,1.36c68,12.8,62.65,121,16.2,131.42s-56.91-25.6-56.91-25.6v40.78Z"/><rect class="cls-8" x="2083.16" y="223.9" width="8.53" height="539.7"/><path class="cls-8" d="M2064.74,800.6v-40c0-13.73,10.22-25,22.68-25s22.7,11.23,22.7,25v40Z"/><path class="cls-63" d="M2110.12,800.6v-40c0-13.73-10.21-25-22.7-25a20.31,20.31,0,0,0-4.81.6c29.86,5.61,27.49,53.08,7.11,57.65s-25-11.23-25-11.23V800.6Z"/><path class="cls-8" d="M2120.58,889.46c0,14.41-14.85,26.08-33.16,26.08s-33.14-11.67-33.14-26.08,14.86-26.08,33.14-26.08S2120.58,875.06,2120.58,889.46Z"/><path class="cls-8" d="M2035.74,896.38v-91c0-31.3,23.27-56.91,51.68-56.91s51.7,25.61,51.7,56.91v91Z"/><path class="cls-63" d="M2139.12,896.38v-91c0-31.3-23.27-56.91-51.7-56.91a46.42,46.42,0,0,0-11,1.37c68,12.79,62.65,121,16.2,131.42s-56.91-25.61-56.91-25.61v40.78Z"/></g><path class="cls-64" d="M1869.11,2860.69v22.54h-13.19v-64h25a29,29,0,0,1,12.68,2.63,19.48,19.48,0,0,1,8.42,7.5,20.89,20.89,0,0,1,2.94,11q0,9.41-6.44,14.83t-17.82,5.43Zm0-10.68h11.77q5.23,0,8-2.46a9,9,0,0,0,2.75-7,10.6,10.6,0,0,0-2.77-7.61,10.34,10.34,0,0,0-7.65-3h-12.08Z"/><path class="cls-64" d="M1937.66,2859.81h-10.5v23.42H1914v-64h23.78q11.34,0,17.49,5.05t6.15,14.28a19.66,19.66,0,0,1-2.83,10.92,19.33,19.33,0,0,1-8.6,7l13.85,26.15v.61h-14.15Zm-10.5-10.68h10.63c3.31,0,5.88-.84,7.69-2.53a9,9,0,0,0,2.73-7,9.68,9.68,0,0,0-2.57-7.12q-2.58-2.59-7.89-2.59h-10.59Z"/><path class="cls-64" d="M2024,2852.69a38.74,38.74,0,0,1-3.34,16.57,25.12,25.12,0,0,1-9.56,11,28.24,28.24,0,0,1-28.45.05,25.39,25.39,0,0,1-9.67-10.92,37.48,37.48,0,0,1-3.47-16.33v-3.16a38.46,38.46,0,0,1,3.4-16.64,25.37,25.37,0,0,1,9.63-11,28.23,28.23,0,0,1,28.43,0,25.42,25.42,0,0,1,9.62,11,38.32,38.32,0,0,1,3.41,16.59Zm-13.36-2.9q0-10.07-3.6-15.29a12.74,12.74,0,0,0-20.53-.07q-3.6,5.16-3.64,15.14v3.12q0,9.79,3.6,15.2a12.62,12.62,0,0,0,20.57.2q3.56-5.21,3.6-15.18Z"/><path class="cls-64" d="M2084.17,2875.15a22.86,22.86,0,0,1-10.06,6.61,42.09,42.09,0,0,1-14.41,2.35,28.51,28.51,0,0,1-14.57-3.63,24.1,24.1,0,0,1-9.67-10.52,37.06,37.06,0,0,1-3.49-16.22v-4.35a39.28,39.28,0,0,1,3.23-16.59,23.88,23.88,0,0,1,9.31-10.72,26.89,26.89,0,0,1,14.26-3.71q11.39,0,17.8,5.43t7.6,15.79h-12.83q-.87-5.49-3.89-8c-2-1.7-4.77-2.55-8.28-2.55q-6.72,0-10.24,5.06t-3.56,15v4.08q0,10.07,3.82,15.21t11.21,5.14q7.42,0,10.59-3.16v-11h-12v-9.72h25.18Z"/><path class="cls-64" d="M2118.54,2859.81H2108v23.42h-13.19v-64h23.78q11.34,0,17.49,5.05t6.15,14.28a19.66,19.66,0,0,1-2.84,10.92,19.25,19.25,0,0,1-8.59,7l13.85,26.15v.61h-14.15Zm-10.5-10.68h10.63q5,0,7.69-2.53a9,9,0,0,0,2.73-7,9.65,9.65,0,0,0-2.58-7.12q-2.57-2.59-7.88-2.59H2108Z"/><path class="cls-64" d="M2188.41,2870.05H2165.3l-4.4,13.18h-14l23.82-64h12.22l23.95,64h-14Zm-19.55-10.68h16l-8-23.95Z"/><path class="cls-64" d="M2230.07,2819.25l16.44,46.4,16.35-46.4h17.31v64h-13.23v-17.49l1.32-30.19L2251,2883.23h-9l-17.23-47.63,1.32,30.14v17.49h-13.18v-64Z"/><path class="cls-64" d="M2308.91,2819.25l16.44,46.4,16.34-46.4H2359v64h-13.23v-17.49l1.32-30.19-17.27,47.68h-9l-17.23-47.63,1.32,30.14v17.49h-13.19v-64Z"/><path class="cls-64" d="M2384.54,2883.23h-13.18v-64h13.18Z"/><path class="cls-64" d="M2448.79,2883.23H2435.6l-25.66-42.1v42.1h-13.18v-64h13.18l25.71,42.18v-42.18h13.14Z"/><path class="cls-64" d="M2510.93,2875.15a23,23,0,0,1-10.07,6.61,42,42,0,0,1-14.41,2.35,28.54,28.54,0,0,1-14.57-3.63,24.16,24.16,0,0,1-9.67-10.52,37.06,37.06,0,0,1-3.49-16.22v-4.35a39.44,39.44,0,0,1,3.23-16.59,23.9,23.9,0,0,1,9.32-10.72,26.86,26.86,0,0,1,14.26-3.71q11.37,0,17.79,5.43t7.61,15.79h-12.84c-.58-3.66-1.88-6.34-3.88-8s-4.77-2.55-8.29-2.55q-6.72,0-10.24,5.06t-3.56,15v4.08q0,10.07,3.83,15.21t11.2,5.14q7.42,0,10.59-3.16v-11h-12v-9.72h25.18Z"/><path class="cls-64" d="M2577.2,2866.44a6.75,6.75,0,0,0-2.64-5.73q-2.64-2-9.49-4.22a68.14,68.14,0,0,1-10.86-4.37q-10.89-5.89-10.9-15.87a15.46,15.46,0,0,1,2.93-9.25,19,19,0,0,1,8.39-6.35,31.65,31.65,0,0,1,12.28-2.28,28.87,28.87,0,0,1,12.22,2.48,19.52,19.52,0,0,1,8.33,7,18.41,18.41,0,0,1,3,10.28h-13.18a8.61,8.61,0,0,0-2.77-6.83c-1.84-1.63-4.44-2.44-7.78-2.44s-5.72.68-7.51,2a6.45,6.45,0,0,0-2.68,5.39,6.19,6.19,0,0,0,3.14,5.23,35.67,35.67,0,0,0,9.25,3.95q11.25,3.39,16.39,8.4a16.71,16.71,0,0,1,5.14,12.48,15.4,15.4,0,0,1-6.28,13q-6.29,4.72-16.92,4.72a32.74,32.74,0,0,1-13.45-2.7,21.29,21.29,0,0,1-9.25-7.41,19,19,0,0,1-3.18-10.9h13.22q0,10.61,12.66,10.6a12.29,12.29,0,0,0,7.34-1.92A6.21,6.21,0,0,0,2577.2,2866.44Z"/><path class="cls-64" d="M2619.38,2857.57l-6.85,7.38v18.28h-13.19v-64h13.19v29l5.8-7.95,16.3-21.05h16.22l-22.72,28.43,23.38,35.55h-15.69Z"/><path class="cls-64" d="M2670.49,2883.23h-13.18v-64h13.18Z"/><path class="cls-64" d="M2695.89,2872.64h28v10.59h-41.18v-64h13.18Z"/><path class="cls-64" d="M2744.63,2872.64h28v10.59h-41.18v-64h13.19Z"/><path class="cls-64" d="M2813.36,2866.44a6.75,6.75,0,0,0-2.64-5.73q-2.64-2-9.49-4.22a68.14,68.14,0,0,1-10.86-4.37q-10.89-5.89-10.89-15.87a15.45,15.45,0,0,1,2.92-9.25,19.09,19.09,0,0,1,8.39-6.35,31.67,31.67,0,0,1,12.29-2.28,28.79,28.79,0,0,1,12.21,2.48,19.46,19.46,0,0,1,8.33,7,18.34,18.34,0,0,1,3,10.28H2813.4a8.61,8.61,0,0,0-2.77-6.83c-1.84-1.63-4.44-2.44-7.78-2.44s-5.72.68-7.51,2a6.45,6.45,0,0,0-2.68,5.39,6.19,6.19,0,0,0,3.14,5.23,35.83,35.83,0,0,0,9.25,3.95q11.25,3.39,16.39,8.4a16.71,16.71,0,0,1,5.15,12.48,15.41,15.41,0,0,1-6.29,13q-6.28,4.72-16.92,4.72a32.74,32.74,0,0,1-13.45-2.7,21.29,21.29,0,0,1-9.25-7.41,19,19,0,0,1-3.18-10.9h13.23q0,10.61,12.65,10.6a12.27,12.27,0,0,0,7.34-1.92A6.21,6.21,0,0,0,2813.36,2866.44Z"/><path class="cls-65" d="M1853.19,2977.06l-12.66-33.82h3.4l10.78,29.83h.14l10.81-29.83H1869l-12.66,33.82Z"/><path class="cls-65" d="M1922,2977.06h-20.42v-33.82H1922v2.91h-17.23v12.16h16.36v2.86h-16.36v13H1922Z"/><path class="cls-65" d="M1954.85,2960.07c0-10.6,5.88-17.37,15.07-17.37,7.15,0,12.8,4.66,13.71,11.27h-3.21a10.4,10.4,0,0,0-10.5-8.29c-7.17,0-11.79,5.6-11.79,14.39s4.62,14.55,11.81,14.55c5.39,0,9.47-2.88,10.48-7.57h3.21c-1.19,6.59-6.37,10.55-13.71,10.55C1960.71,2977.6,1954.85,2970.78,1954.85,2960.07Z"/><path class="cls-65" d="M2024.52,2977.06v-30.91h-11.15v-2.91h25.55v2.91h-11.18v30.91Z"/><path class="cls-65" d="M2098.86,2960.16c0,10.71-5.93,17.44-15.37,17.44s-15.35-6.73-15.35-17.44,5.93-17.46,15.35-17.46S2098.86,2949.45,2098.86,2960.16Zm-27.44,0c0,8.86,4.66,14.46,12.07,14.46s12.09-5.6,12.09-14.46-4.69-14.48-12.09-14.48S2071.42,2951.28,2071.42,2960.16Z"/><path class="cls-65" d="M2135.82,2977.06h-3.19v-33.82h11.93c6.61,0,10.83,3.87,10.83,9.89a9.37,9.37,0,0,1-7.24,9.56l8.2,14.37h-3.75l-7.78-13.85h-9Zm0-16.69h8.48c4.93,0,7.78-2.62,7.78-7.15s-3-7.12-7.89-7.12h-8.37Z"/><path class="cls-65" d="M2228,2977.06v-33.82h3.19v33.82Z"/><path class="cls-65" d="M2286.46,2977.06h-20.13v-33.82h3.19v30.91h16.94Z"/><path class="cls-65" d="M2339.92,2977.06h-20.13v-33.82H2323v30.91h17Z"/><path class="cls-65" d="M2374.72,2965.06c0,5.67,3.7,9.56,9.89,9.56s9.89-3.89,9.89-9.56v-21.82h3.21v22c0,7.29-5,12.35-13.1,12.35s-13.08-5.06-13.08-12.35v-22h3.19Z"/><path class="cls-65" d="M2434.38,2967.87c.36,4.06,4.18,6.82,9.47,6.82,5.07,0,8.7-2.76,8.7-6.56,0-3.16-2.18-5-7.2-6.31l-4.19-1.07c-6.26-1.6-9-4.25-9-8.7,0-5.46,4.92-9.35,11.58-9.35s11.41,3.89,11.6,9.26h-3.21c-.3-3.82-3.68-6.35-8.48-6.35s-8.16,2.6-8.16,6.32c0,2.91,2.11,4.62,7.08,5.89l3.65.93c6.8,1.72,9.66,4.32,9.66,9,0,5.93-4.78,9.82-12.26,9.82-7.08,0-12-3.92-12.4-9.73Z"/><path class="cls-65" d="M2498,2977.06v-30.91h-11.16v-2.91h25.55v2.91H2501.2v30.91Z"/><path class="cls-65" d="M2548.4,2977.06h-3.19v-33.82h11.93c6.61,0,10.83,3.87,10.83,9.89a9.37,9.37,0,0,1-7.24,9.56l8.2,14.37h-3.75l-7.78-13.85h-9Zm0-16.69h8.48c4.93,0,7.79-2.62,7.79-7.15s-3-7.12-7.9-7.12h-8.37Z"/><path class="cls-65" d="M2620.7,2966.7h-14.2l-3.75,10.36h-3.4l12.65-33.82h3.19l12.63,33.82h-3.37Zm-13.24-2.77h12.28l-6.07-16.73h-.14Z"/><path class="cls-65" d="M2664.48,2977.06v-30.91h-11.16v-2.91h25.55v2.91h-11.18v30.91Z"/><path class="cls-65" d="M2711.7,2977.06v-33.82h3.18v33.82Z"/><path class="cls-65" d="M2779.38,2960.16c0,10.71-5.93,17.44-15.37,17.44s-15.36-6.73-15.36-17.44,5.93-17.46,15.36-17.46S2779.38,2949.45,2779.38,2960.16Zm-27.44,0c0,8.86,4.66,14.46,12.07,14.46s12.09-5.6,12.09-14.46-4.69-14.48-12.09-14.48S2751.94,2951.28,2751.94,2960.16Z"/><path class="cls-65" d="M2813.15,2977.06v-33.82h3.16l19.83,28.24h.17v-28.24h3.16v33.82h-3.09l-19.9-28.27h-.17v28.27Z"/></g></g></g></svg>