<svg enable-background="new 0 0 110 110" height="512" viewBox="0 0 110 110" width="512" xmlns="http://www.w3.org/2000/svg"><path d="m68.9050446 25.0274029h-48.297905c-1.6952763 0-3.0695915 1.3743153-3.0695915 3.0695896v63.6082993c0 1.6952744 1.3743153 3.0695877 3.0695915 3.0695877h48.297905c1.6952744 0 3.0694733-1.3743134 3.0694733-3.0695877v-63.6082993c-.0000001-1.6952744-1.374199-3.0695896-3.0694733-3.0695896z" fill="#27a2db"/><path d="m22.401995 30.377642h44.708077v59.047001h-44.708077z" fill="#e1e6e9"/><path d="m51.159832 21.6228962h-1.4439697v-1.5207233c0-2.739212-2.2205582-4.9598846-4.9597702-4.9598846-2.7393265 0-4.9599991 2.2206726-4.9599991 4.9598846v1.5207233h-1.4439735c-3.5367279 0-6.4037418 2.8670139-6.4037418 6.4038582v5.110014h25.6153126v-5.110014c-.0000001-3.5368443-2.8671304-6.4038582-6.4038583-6.4038582z" fill="#fcd462"/><g fill="#d5d6db"><path d="m27.910263 56.32085h6.710655v1.618733h-6.710655z"/><path d="m36.711395 56.32085h10.541797v1.618733h-10.541797z"/><path d="m49.34367 56.32085h12.258136v1.618733h-12.258136z"/><path d="m27.910263 38.697456h19.342928v1.610591h-19.342928z"/><path d="m49.34367 38.697456h12.258136v1.610591h-12.258136z"/><path d="m27.910263 44.571919h7.564728v1.618683h-7.564728z"/><path d="m37.565468 44.571919h5.100114v1.618683h-5.100114z"/><path d="m44.756058 44.571919h9.167128v1.618683h-9.167128z"/><path d="m56.013664 44.571919h5.588141v1.618683h-5.588141z"/><path d="m27.910263 50.446384h11.35526v1.610541h-11.35526z"/><path d="m41.355949 50.446384h6.702562v1.610541h-6.702562z"/><path d="m50.148941 50.446384h11.452865v1.610541h-11.452865z"/><path d="m27.910263 79.486092h6.710655v1.618733h-6.710655z"/><path d="m36.711395 79.486092h10.541797v1.618733h-10.541797z"/><path d="m49.34367 79.486092h12.258136v1.618733h-12.258136z"/><path d="m27.910263 61.862701h19.342928v1.610591h-19.342928z"/><path d="m49.34367 61.862701h12.258136v1.610591h-12.258136z"/><path d="m27.910263 67.737167h7.564728v1.618683h-7.564728z"/><path d="m37.565468 67.737167h5.100114v1.618683h-5.100114z"/><path d="m44.756058 67.737167h9.167128v1.618683h-9.167128z"/><path d="m56.013664 67.737167h5.588141v1.618683h-5.588141z"/><path d="m27.910263 73.611633h11.35526v1.610541h-11.35526z"/><path d="m41.355949 73.611633h6.702562v1.610541h-6.702562z"/><path d="m50.148941 73.611633h11.452865v1.610541h-11.452865z"/></g><circle cx="69.065" cy="72.375" fill="#e56353" r="22.482"/><circle cx="69.065" cy="72.375" fill="#ebf0f3" r="18.117"/><circle cx="69.065" cy="72.375" fill="#e56353" r="13.974"/><circle cx="69.065" cy="72.375" fill="#ebf0f3" r="9.439"/><circle cx="69.065" cy="72.375" fill="#e56353" r="4.492"/><path d="m89.5152969 50.48106-21.2236862 21.2236824c-.3240356.3240356-.3240356.8493347-.0000763 1.1732941.323967.3239594.8492661.3239594 1.1732941-.0000763l21.2236862-21.2236824z" fill="#fcd462"/><g fill="#2d93ba"><path d="m87.3350754 58.1153755-3.3134461-.2660446 5.1273728-5.1273766 3.313446.2660447z"/><path d="m83.0541992 53.8344994.2660446 3.313446 5.1273728-5.1273766-.266037-3.313446z"/></g></svg>