<svg xmlns="http://www.w3.org/2000/svg" viewBox="0 0 340.48 375.68"><defs><style>.cls-1{fill:#f2f1f0;}.cls-2{fill:#929fff;}.cls-3{fill:#b8c2ff;}.cls-4{fill:#1e43c6;}.cls-5{fill:#3062ef;}.cls-6{fill:#ffbc48;}.cls-7{fill:#6774ff;}.cls-8{fill:#647df9;}.cls-9{fill:#f9a935;}.cls-10{fill:#e0e0e0;}.cls-11{fill:#587af4;}.cls-12{fill:#1730a4;}.cls-13{fill:#5e71fc;}.cls-14{fill:#f9c170;}.cls-15{fill:#0a0189;}.cls-16{fill:#2554d8;}.cls-17{fill:#2d68ea;}</style></defs><title>study_1</title><g id="Layer_2" data-name="Layer 2"><g id="Layer_1-2" data-name="Layer 1"><path class="cls-1" d="M172.32,169.44s48.35,10.65,94.29,2.52,78-15.25,61.66-40.54-20.94-41.3.59-51.3C367.33,62.25,306.48,5,203,.59,98-3.9,31,25.11,71.29,62.25c21.4,19.73-22,29.55-33.16,41.67S8.83,137.5,54.71,153.35,172.32,169.44,172.32,169.44Z"/><rect class="cls-2" x="157.3" width="139.54" height="126.36" rx="30.35"/><path class="cls-3" d="M157.3,18.58H296.84a0,0,0,0,1,0,0V96a30.35,30.35,0,0,1-30.35,30.35H187.65A30.35,30.35,0,0,1,157.3,96V18.58A0,0,0,0,1,157.3,18.58Z"/><circle class="cls-4" cx="271.85" cy="9.94" r="1.9"/><circle class="cls-5" cx="278.37" cy="9.94" r="1.9"/><circle class="cls-6" cx="284.46" cy="9.94" r="1.9"/><rect class="cls-3" x="168.13" y="8.04" width="16.63" height="3.8" rx="1.9"/><rect class="cls-2" x="225.77" y="21.3" width="2.61" height="101.17" rx="1.3"/><rect class="cls-7" x="166.01" y="26.73" width="33.47" height="10.43" rx="5.22"/><rect class="cls-2" x="166.01" y="68.62" width="51.8" height="10.43" rx="5.22"/><rect class="cls-2" x="236.43" y="26.73" width="51.8" height="10.43" rx="5.22"/><rect class="cls-7" x="236.43" y="89.83" width="33.47" height="10.43" rx="5.22"/><path class="cls-2" d="M188.51,45.72H166a.22.22,0,0,1,0-.44h22.5a.22.22,0,0,1,0,.44Z"/><path class="cls-2" d="M196.66,53.11H166a.21.21,0,0,1-.21-.22.21.21,0,0,1,.21-.21h30.65a.21.21,0,0,1,.21.21A.21.21,0,0,1,196.66,53.11Z"/><path class="cls-2" d="M209.15,60.5H166a.21.21,0,0,1-.21-.22.21.21,0,0,1,.21-.21h43.14a.22.22,0,1,1,0,.43Z"/><path class="cls-7" d="M188.51,88.84H166a.21.21,0,0,1-.21-.22.21.21,0,0,1,.21-.21h22.5a.21.21,0,0,1,.21.21A.21.21,0,0,1,188.51,88.84Z"/><path class="cls-7" d="M196.66,96.23H166a.21.21,0,0,1-.21-.21.21.21,0,0,1,.21-.22h30.65a.21.21,0,0,1,.21.22A.21.21,0,0,1,196.66,96.23Z"/><path class="cls-7" d="M209.15,103.63H166a.22.22,0,0,1,0-.44h43.14a.22.22,0,0,1,0,.44Z"/><path class="cls-7" d="M258.92,45.72H236.43a.22.22,0,0,1,0-.44h22.49a.22.22,0,0,1,0,.44Z"/><path class="cls-7" d="M267.07,53.11H236.43a.22.22,0,0,1-.22-.22.21.21,0,0,1,.22-.21h30.64a.21.21,0,0,1,.22.21A.22.22,0,0,1,267.07,53.11Z"/><path class="cls-7" d="M279.57,60.5H236.43a.22.22,0,1,1,0-.43h43.14a.21.21,0,0,1,.21.21A.21.21,0,0,1,279.57,60.5Z"/><path class="cls-7" d="M258.92,67.89H236.43a.21.21,0,0,1-.22-.21.22.22,0,0,1,.22-.22h22.49a.22.22,0,0,1,.22.22A.21.21,0,0,1,258.92,67.89Z"/><path class="cls-7" d="M267.07,75.29H236.43a.22.22,0,1,1,0-.44h30.64a.22.22,0,1,1,0,.44Z"/><path class="cls-7" d="M279.57,82.68H236.43a.22.22,0,0,1-.22-.22.21.21,0,0,1,.22-.21h43.14a.21.21,0,0,1,.21.21A.21.21,0,0,1,279.57,82.68Z"/><path class="cls-7" d="M196.66,111H166a.22.22,0,0,1,0-.44h30.65a.22.22,0,0,1,0,.44Z"/><path class="cls-7" d="M209.15,118.41H166a.21.21,0,0,1-.21-.22A.21.21,0,0,1,166,118h43.14a.21.21,0,0,1,.22.21A.22.22,0,0,1,209.15,118.41Z"/><path class="cls-2" d="M267.07,109.79H236.43a.22.22,0,1,1,0-.44h30.64a.22.22,0,1,1,0,.44Z"/><path class="cls-2" d="M279.57,117.18H236.43a.22.22,0,1,1,0-.44h43.14a.22.22,0,0,1,0,.44Z"/><path class="cls-8" d="M163.55,72.61h-59.4L126.55,41H141.7c.17.21.33.42.49.64Z"/><path class="cls-4" d="M139.63,41H128.88l3.56-5h4.17a1.37,1.37,0,0,1,.13.2Z"/><path class="cls-9" d="M142.2,72.61a8.35,8.35,0,1,1-16.7,0Z"/><polygon class="cls-8" points="134.69 36 133.82 36 133.82 2.93 134.69 2.82 134.69 36"/><path class="cls-10" d="M92.07,301.49s-131.88,30.43-64.21,39.12,139.4.44,122.88,9.57-42.12,18.75-8.69,23.47c70.62,10,219.1-18.66,176.9-41.73C253.09,295.91,92.07,301.49,92.07,301.49Z"/><polygon class="cls-11" points="126.55 40.98 146.75 72.61 163.55 72.61 141.7 40.98 126.55 40.98"/><path class="cls-12" d="M228.22,328.47c-5.9-.17-11-4.66-16.88-7.77S202.2,310,202.2,310s5.28-1.73,6.5-1.9c.94-.13,8,1,11.28,1.6l1.66.3s.4.1,1.08.31h0c2.89.9,10.89,3.71,14.85,8.33C242.44,324.32,234.11,328.65,228.22,328.47Z"/><path class="cls-7" d="M216.22,306.89l.72,3a16,16,0,0,1-5.72,1.08c-3.48.08-2.39-5-2.39-5l3.84-1.67Z"/><path class="cls-7" d="M187.27,160.3a39.8,39.8,0,0,1,3.08,7.84c1.22,4.43,2.9,14,2.9,14v3.23l-9.88-.41s-4.9-14.35-7.58-16.7-5.14-7.23-5.14-7.23l5.79-4.29Z"/><path class="cls-5" d="M146.75,192.33H81.26l-9-91.6s9.42,2.86,10.83,17C84.36,130.24,80,134.16,80,134.16l62.64-1.74Z"/><path class="cls-4" d="M86.18,192.33H81.26l-9-91.6s9.42,2.86,10.83,17C84.36,130.24,80,134.16,80,134.16Z"/><path class="cls-3" d="M83.1,117.7c-1.41-14.11-10.83-17-10.83-17H140.4l2.19,31.69L80,134.16S84.36,130.24,83.1,117.7Z"/><path class="cls-4" d="M188.29,158.69a18.84,18.84,0,0,1-6.77,6.89A55.83,55.83,0,0,1,170,170.17L166.12,160l-1.77-4.56h0l-1.7,3.26c-.34.67-.67,1.3-.9,1.74-.75,1.44-.37,2-.08,4.05a12.66,12.66,0,0,1-.26,4.24s-1.92,15.47-2.35,16.19-3,7.46-3,7.46h-55.2l3.91-23.67s10.29.71,2.1,1.29a36.91,36.91,0,0,1-14.2-1.67S92.56,165,96,153.36,108.31,132,108.31,132a91.61,91.61,0,0,1,13.59-6.42,62.92,62.92,0,0,1,12.89-3.14s21.33,5.1,31.34,8.88S188.29,158.69,188.29,158.69Z"/><path class="cls-13" d="M147.4,141.13a18.78,18.78,0,0,0,.61,3.54c.46,1.86.37,3.9-3.51,8-3.29,3.49-5.63,4-5.63,4s-13.82-7-12.52-17.09,4.78-14.12,4.78-14.12a19.85,19.85,0,0,0,6.41-6.63c2.83-4.62,11.68,5.86,11.68,5.86Z"/><path class="cls-7" d="M175.79,114.68a47.14,47.14,0,0,1-10.57,17.67c-8,8.55-17,9.35-17,9.35s-5.5-2.76-6.8-12,.94-13.26.94-13.26,19-8.51,19.38-8.62S175.79,114.68,175.79,114.68Z"/><path class="cls-12" d="M115.78,168.66s2.35-7.11,3.65-12.26,2.18-7.68,2.18-7.68a20.56,20.56,0,0,1,0,8.19C120.77,161.7,115.78,168.66,115.78,168.66Z"/><polygon class="cls-5" points="216 150.82 271.2 150.82 258.16 192.33 201.51 192.33 216 150.82"/><path class="cls-4" d="M201.51,192.33h-26.7v-4.39a1.7,1.7,0,0,1,1.7-1.69h24.06l12.93-36.94h55.74l2,1.51H216Z"/><path class="cls-3" d="M186.73,186.25s.44-4.13,6.52-4.13c7.32,0,7.32,4.13,7.32,4.13Z"/><path class="cls-2" d="M187.48,184.47s-3.18-.15-4.11.47-.76,1.31-.76,1.31h4.87Z"/><polygon class="cls-6" points="126.68 177.5 132 156.91 156.23 169.51 182.6 161.8 173.82 192.51 151.67 196.46 122.98 191.39 126.68 177.5"/><path class="cls-9" d="M132,156.91l.41-.12a2.44,2.44,0,0,1,1.78.17l22,11.18,24.08-6.93a2.42,2.42,0,0,1,2.36.59h0l-26.37,7.71Z"/><path class="cls-14" d="M134.59,157.17h0a3.48,3.48,0,0,1,3.27-.08l18.3,9.2,20.7-5.92a3.45,3.45,0,0,1,3.27.75l.11.09-24.08,6.93Z"/><path class="cls-4" d="M257.36,172.23h-1.52a.65.65,0,1,1,0-1.3h1.52a.65.65,0,1,1,0,1.3Z"/><path class="cls-4" d="M281.78,172.23h-3a.65.65,0,1,1,0-1.3h3a.65.65,0,1,1,0,1.3Zm-6.1,0h-3.05a.65.65,0,1,1,0-1.3h3.05a.65.65,0,1,1,0,1.3Zm-6.11,0h-3.05a.65.65,0,1,1,0-1.3h3.05a.65.65,0,1,1,0,1.3Zm-6.1,0h-3.05a.65.65,0,1,1,0-1.3h3.05a.65.65,0,1,1,0,1.3Z"/><path class="cls-4" d="M287,172.23h-2.17a.65.65,0,1,1,0-1.3h.87v-.87a.65.65,0,0,1,1.3,0Z"/><path class="cls-4" d="M286.36,167.67a.65.65,0,0,1-.65-.65v-3a.65.65,0,1,1,1.3,0v3A.65.65,0,0,1,286.36,167.67Zm0-6.08a.65.65,0,0,1-.65-.65v-3a.65.65,0,0,1,1.3,0v3A.65.65,0,0,1,286.36,161.59Zm0-6.07a.66.66,0,0,1-.65-.66v-3a.65.65,0,1,1,1.3,0v3A.66.66,0,0,1,286.36,155.52Zm0-6.08a.65.65,0,0,1-.65-.65v-3a.65.65,0,0,1,1.3,0v3A.65.65,0,0,1,286.36,149.44Zm0-6.08a.65.65,0,0,1-.65-.65v-3a.65.65,0,1,1,1.3,0v3A.65.65,0,0,1,286.36,143.36Zm0-6.08a.65.65,0,0,1-.65-.65v-3a.65.65,0,0,1,1.3,0v3A.65.65,0,0,1,286.36,137.28Zm0-6.07a.66.66,0,0,1-.65-.66v-3a.65.65,0,1,1,1.3,0v3A.66.66,0,0,1,286.36,131.21Zm0-6.08a.65.65,0,0,1-.65-.65v-3a.65.65,0,1,1,1.3,0v3A.65.65,0,0,1,286.36,125.13Zm0-6.08a.65.65,0,0,1-.65-.65v-3a.65.65,0,0,1,1.3,0v3A.65.65,0,0,1,286.36,119.05Z"/><path class="cls-4" d="M286.36,113a.65.65,0,0,1-.65-.65V110.8a.65.65,0,1,1,1.3,0v1.52A.65.65,0,0,1,286.36,113Z"/><path class="cls-15" d="M184.87,103.56s-1.47,10.07-9.08,11.12-12.6-4.64-16.8-2.32c-5.13,2.82-3.66,5.29-4.5,7.86a8.32,8.32,0,0,1-3.29,4s1.16-3.63,0-5.09-5.94-1.72-6.1,2.2.17,4.57-1.69,4.94c-3.53.71-11.24-7.2-7.71-18s11.84-10.78,11.84-10.78,4.6-7.8,15.79-5.58c10,2,9.13,9.2,15.43,13.55C181.53,107.46,184.87,103.56,184.87,103.56Z"/><path class="cls-7" d="M94.58,168.87s-3.11,8.9,5.15,13.47,35.53,6.95,41.94,6.95H153.3s5.32.87,9.24,1.09,7.1-2,7.39-6.74-.44-7.32-6.89-5.87-1-2.06-3.34-2.12c-1.7,0-4.88,4.68-6.4,5.55s-13.91-2.11-24.16-3.86c-9.38-1.61-10.4-1.42-14.67-3.19-1.65-.68-.87-5-.87-5Z"/><path class="cls-9" d="M165.58,208.56a52.52,52.52,0,0,1,27.67,22.24c10.58,17.39,25.35,75.71,25.35,75.71s-12.16,2.09-17.67,1.44S183.68,250.36,171.15,246a53.17,53.17,0,0,0-24.4-2.16l6-27.84Z"/><path class="cls-6" d="M146.62,212.55s16.45.86,27,18.25S199,306.51,199,306.51s-12.16,2.09-17.67,1.44S164.07,250.36,151.54,246a53.17,53.17,0,0,0-24.4-2.16l6-27.84Z"/><path class="cls-3" d="M222.72,310.3h0s-2.95,3.95-5,4.46-2-1.45,0-2.54A3.85,3.85,0,0,0,220,309.7h0l1.66.3S222,310.09,222.72,310.3Z"/><path class="cls-6" d="M65.68,313.91c0,14.73-7,19.45-13.14,20.76q-.8.16-1.56.27l-.25,0-.46,0-.39,0-.22,0-.64,0H47.19l-.64,0-.22,0-.39,0-.47,0-.24,0c-.52-.07-1-.16-1.57-.27-6.11-1.31-13.13-6-13.13-20.76,0-15.47,8.95-14.48,9.06-26.35.07-7.29-4.77-14-7.06-16.72a.81.81,0,0,1,.63-1.33H63.05a.81.81,0,0,1,.63,1.33c-2.3,2.76-7.12,9.43-7.06,16.72C56.73,299.43,65.68,298.44,65.68,313.91Z"/><path class="cls-4" d="M48,257.62c-.1-.16-.21-.32-.32-.47l0,0A28.56,28.56,0,0,0,45,253.86l-.66-.66A25.41,25.41,0,0,0,41,250.55a26.42,26.42,0,0,0-9-3.81,31.91,31.91,0,0,0-3.87-.63C13.94,244.64.33,261.41,0,261.82c.37-.14,17-6.42,27.2-1.51a23.89,23.89,0,0,1,10.46,9.2H53.11A36.48,36.48,0,0,0,48,257.62ZM33.5,255.55c-6.22-5.11-17-1.44-17.16-1.41a.2.2,0,0,1-.14-.38c.12,0,11.17-3.78,17.56,1.47a24.94,24.94,0,0,1,5.12,5.65c0,.26,0,.51,0,.76A24.63,24.63,0,0,0,33.5,255.55Z"/><path class="cls-16" d="M56.38,259.48a40.61,40.61,0,0,0-2.69,3.58c0-.31.07-.61.12-.92h0c.68-1,1.54-2.11,2.52-3.26a31.53,31.53,0,0,0-.46-3.28,28.27,28.27,0,0,0-1.54-5,24.66,24.66,0,0,0-2-3.76c-.07-.13-.15-.25-.23-.37a26.46,26.46,0,0,0-4.45-5.1A31.18,31.18,0,0,0,43,237.9c-12.39-7.45-32.17,2.27-32.17,2.27s12.85.92,21.22,6.57a18.77,18.77,0,0,1,4,3.62,27,27,0,0,1,3.39,5.24,22.28,22.28,0,0,1,2.21,11.87h0c0,.23,0,.45-.07.67,0,.47-.12.92-.2,1.36H55.67A38.59,38.59,0,0,0,56.38,259.48Zm-29-19.61a.2.2,0,0,1-.19-.22.21.21,0,0,1,.23-.19c.1,0,10.88,1.06,14.92,8.39l-.24.42-.06-.12C38.15,240.93,27.49,239.88,27.38,239.87Z"/><path class="cls-16" d="M67.17,246.11a32.4,32.4,0,0,0-3.88.63,26.48,26.48,0,0,0-9,3.81,25.7,25.7,0,0,0-6,5.7l-.6.82,0,.05a36.1,36.1,0,0,0-5.45,12.39H57.67a23.89,23.89,0,0,1,10.46-9.2c10.25-4.91,26.82,1.37,27.2,1.51C95,261.41,81.39,244.64,67.17,246.11ZM81.29,255a.2.2,0,0,1-.27.11c-.1,0-10.08-4-17.33-1.46-2.69.94-5.29,3.43-7.31,5.83h0a40.61,40.61,0,0,0-2.69,3.58c0-.31.07-.61.12-.92h0c.68-1,1.54-2.11,2.52-3.26,2-2.34,4.55-4.68,7.22-5.62,7.41-2.58,17.52,1.43,17.62,1.47A.21.21,0,0,1,81.29,255Z"/><path class="cls-17" d="M84.52,240.17s-12.85.92-21.23,6.57a19,19,0,0,0-4,3.62,26.1,26.1,0,0,0-3.38,5.23,22.8,22.8,0,0,0-2.06,6.54h0c-.05.31-.09.61-.12.92a23,23,0,0,0,.22,6.45H39.66a39.71,39.71,0,0,1-.79-7.87c0-.25,0-.5,0-.76a31.15,31.15,0,0,1,.59-5.28,25.42,25.42,0,0,1,1.54-5,24.91,24.91,0,0,1,1.09-2.28l.24-.42a25.57,25.57,0,0,1,5.33-6.53,31.07,31.07,0,0,1,4.68-3.42C64.74,230.45,84.52,240.17,84.52,240.17Z"/><path class="cls-1" d="M38.88,260.88c0,.26,0,.51,0,.76a24.63,24.63,0,0,0-5.37-6.09c-6.22-5.11-17-1.44-17.16-1.41a.2.2,0,0,1-.14-.38c.12,0,11.17-3.78,17.56,1.47A24.94,24.94,0,0,1,38.88,260.88Z"/><path class="cls-1" d="M42.34,247.85l-.24.42-.06-.12c-3.89-7.22-14.55-8.27-14.66-8.28a.2.2,0,0,1-.19-.22.21.21,0,0,1,.23-.19C27.52,239.47,38.3,240.52,42.34,247.85Z"/><path class="cls-1" d="M46.9,266.24a.21.21,0,0,1-.21-.2c0-.13,0-13.13,5.85-20.16,6.76-8.09,19.8-6.43,19.93-6.42a.22.22,0,0,1,.18.23.2.2,0,0,1-.23.18c-.13,0-13-1.64-19.56,6.28-5.77,6.91-5.76,19.76-5.76,19.89a.19.19,0,0,1-.2.2Z"/><path class="cls-1" d="M81.29,255a.2.2,0,0,1-.27.11c-.1,0-10.08-4-17.33-1.46-2.69.94-5.29,3.43-7.31,5.83h0a40.61,40.61,0,0,0-2.69,3.58c0-.31.07-.61.12-.92h0c.68-1,1.54-2.11,2.52-3.26,2-2.34,4.55-4.68,7.22-5.62,7.41-2.58,17.52,1.43,17.62,1.47A.21.21,0,0,1,81.29,255Z"/><path class="cls-3" d="M277.39,198.2c0,4.17-1.41,5.22-1.41,5.22H58.65s-1.41-1-1.41-5.22c0-4.67,1.41-5.87,1.41-5.87H276S277.39,193.53,277.39,198.2Z"/><rect class="cls-2" x="68.07" y="203.42" width="99.1" height="129.24"/><rect class="cls-2" x="255.84" y="203.42" width="10.72" height="129.24"/><rect class="cls-4" x="167.17" y="287.16" width="45.49" height="45.49"/><rect class="cls-3" x="181.66" y="306" width="16.52" height="3.91" rx="1.96"/><rect class="cls-5" x="171.15" y="241.67" width="45.49" height="45.49"/><rect class="cls-3" x="185.64" y="260.5" width="16.52" height="3.91" rx="1.96"/><rect class="cls-8" x="72.18" y="208.56" width="90.88" height="118.52"/></g></g></svg>