<svg xmlns="http://www.w3.org/2000/svg" viewBox="0 0 870.04 959.98"><defs><style>.cls-1{fill:#f2f1f0;}.cls-2{fill:#929fff;}.cls-3{fill:#b8c2ff;}.cls-4{fill:#1e43c6;}.cls-5{fill:#3062ef;}.cls-6{fill:#ffbc48;}.cls-7{fill:#6774ff;}.cls-8{fill:#647df9;}.cls-9{fill:#f9a935;}.cls-10{fill:#e0e0e0;}.cls-11{fill:#587af4;}.cls-12{fill:#1730a4;}.cls-13{fill:#5e71fc;}.cls-14{fill:#f9c170;}.cls-15{fill:#0a0189;}.cls-16{fill:#2554d8;}.cls-17{fill:#2d68ea;}</style></defs><title>study</title><g id="Layer_2" data-name="Layer 2"><g id="Layer_1-2" data-name="Layer 1"><path class="cls-1" d="M440.33,433s123.56,27.21,240.92,6.45,199.29-39,157.59-103.6-53.51-105.53,1.49-131.08C938.63,159.06,783.15,12.81,518.78,1.5,250.41-10,79.24,64.17,182.16,159.06c54.69,50.41-56.1,75.52-84.73,106.49s-74.86,85.8,42.37,126.29S440.33,433,440.33,433Z"/><rect class="cls-2" x="401.95" width="356.57" height="322.9" rx="30.35"/><path class="cls-3" d="M402,47.49H758.52a0,0,0,0,1,0,0V292.55a30.35,30.35,0,0,1-30.35,30.35H432.3A30.35,30.35,0,0,1,402,292.55V47.49A0,0,0,0,1,402,47.49Z"/><circle class="cls-4" cx="694.66" cy="25.41" r="4.86"/><circle class="cls-5" cx="711.32" cy="25.41" r="4.86"/><circle class="cls-6" cx="726.87" cy="25.41" r="4.86"/><rect class="cls-3" x="429.63" y="20.55" width="42.48" height="9.72" rx="4.86"/><rect class="cls-2" x="576.91" y="54.42" width="6.66" height="258.53" rx="3.33"/><rect class="cls-7" x="424.21" y="68.31" width="85.52" height="26.66" rx="10.58"/><rect class="cls-2" x="424.21" y="175.35" width="132.36" height="26.66" rx="10.58"/><rect class="cls-2" x="604.14" y="68.31" width="132.36" height="26.66" rx="10.58"/><rect class="cls-7" x="604.14" y="229.54" width="85.52" height="26.66" rx="10.58"/><path class="cls-2" d="M481.69,116.82H424.21a.56.56,0,0,1,0-1.11h57.48a.56.56,0,1,1,0,1.11Z"/><path class="cls-2" d="M502.51,135.71h-78.3a.56.56,0,0,1,0-1.11h78.3a.56.56,0,1,1,0,1.11Z"/><path class="cls-2" d="M534.45,154.6H424.21a.56.56,0,0,1,0-1.11H534.45a.56.56,0,0,1,0,1.11Z"/><path class="cls-7" d="M481.69,227H424.21a.56.56,0,0,1,0-1.11h57.48a.56.56,0,1,1,0,1.11Z"/><path class="cls-7" d="M502.51,245.9h-78.3a.56.56,0,0,1,0-1.11h78.3a.56.56,0,1,1,0,1.11Z"/><path class="cls-7" d="M534.45,264.79H424.21a.55.55,0,0,1-.55-.55.56.56,0,0,1,.55-.56H534.45a.56.56,0,0,1,.55.56A.55.55,0,0,1,534.45,264.79Z"/><path class="cls-7" d="M661.62,116.82H604.14a.56.56,0,0,1,0-1.11h57.48a.56.56,0,0,1,0,1.11Z"/><path class="cls-7" d="M682.44,135.71h-78.3a.56.56,0,0,1,0-1.11h78.3a.56.56,0,1,1,0,1.11Z"/><path class="cls-7" d="M714.37,154.6H604.14a.56.56,0,0,1,0-1.11H714.37a.56.56,0,1,1,0,1.11Z"/><path class="cls-7" d="M661.62,173.49H604.14a.56.56,0,0,1,0-1.11h57.48a.56.56,0,0,1,0,1.11Z"/><path class="cls-7" d="M682.44,192.38h-78.3a.56.56,0,0,1,0-1.11h78.3a.56.56,0,1,1,0,1.11Z"/><path class="cls-7" d="M714.37,211.27H604.14a.56.56,0,0,1,0-1.11H714.37a.56.56,0,1,1,0,1.11Z"/><path class="cls-7" d="M502.51,283.68h-78.3a.55.55,0,0,1-.55-.55.56.56,0,0,1,.55-.56h78.3a.56.56,0,0,1,.56.56A.55.55,0,0,1,502.51,283.68Z"/><path class="cls-7" d="M534.45,302.57H424.21a.55.55,0,0,1-.55-.55.56.56,0,0,1,.55-.56H534.45a.56.56,0,0,1,.55.56A.55.55,0,0,1,534.45,302.57Z"/><path class="cls-2" d="M682.44,280.53h-78.3a.54.54,0,0,1-.55-.55.55.55,0,0,1,.55-.56h78.3a.56.56,0,0,1,.56.56A.55.55,0,0,1,682.44,280.53Z"/><path class="cls-2" d="M714.37,299.42H604.14a.54.54,0,0,1-.55-.55.55.55,0,0,1,.55-.56H714.37a.56.56,0,0,1,.56.56A.55.55,0,0,1,714.37,299.42Z"/><path class="cls-8" d="M417.92,185.53H266.13l57.25-80.81h38.71c.44.52.85,1.07,1.24,1.63Z"/><path class="cls-4" d="M356.78,104.72H329.33L338.42,92h10.67a5.54,5.54,0,0,1,.33.51Z"/><path class="cls-9" d="M363.36,185.53a21.34,21.34,0,1,1-42.68,0Z"/><polygon class="cls-8" points="344.16 91.98 341.94 91.98 341.94 7.49 344.16 7.22 344.16 91.98"/><path class="cls-10" d="M235.26,770.41s-337,77.74-164.06,100,356.2,1.11,314,24.43-107.63,47.92-22.22,60c180.44,25.46,559.86-47.69,452-106.63C646.71,756.14,235.26,770.41,235.26,770.41Z"/><polygon class="cls-11" points="323.38 104.72 374.98 185.53 417.92 185.53 362.09 104.72 323.38 104.72"/><path class="cls-12" d="M583.16,839.34c-15.06-.44-28.06-11.92-43.12-19.86s-23.36-27.38-23.36-27.38,13.5-4.4,16.61-4.85c2.39-.33,20.43,2.68,28.81,4.11l4.27.74s1,.27,2.74.8v0c7.39,2.28,27.83,9.46,37.94,21.26C619.51,828.75,598.22,839.79,583.16,839.34Z"/><path class="cls-7" d="M552.5,784.19l1.85,7.72a40.69,40.69,0,0,1-14.63,2.77c-8.88.19-6.11-12.77-6.11-12.77l9.81-4.26Z"/><path class="cls-7" d="M478.53,409.6a102.61,102.61,0,0,1,7.88,20c3.1,11.34,7.4,35.73,7.4,35.73v8.26l-25.24-1s-12.52-36.67-19.37-42.68-13.14-18.48-13.14-18.48l14.81-11Z"/><path class="cls-5" d="M375,491.47H207.63L184.68,257.4s24.06,7.31,27.67,43.37c3.21,32-8,42.06-8,42.06l160.07-4.45Z"/><path class="cls-4" d="M220.22,491.47H207.63L184.68,257.4s24.06,7.31,27.67,43.37c3.21,32-8,42.06-8,42.06Z"/><path class="cls-3" d="M212.35,300.77c-3.61-36.06-27.67-43.37-27.67-43.37H358.76l5.61,81L204.3,342.83S215.56,332.81,212.35,300.77Z"/><path class="cls-4" d="M481.13,405.5a47.94,47.94,0,0,1-17.29,17.6c-12.95,7.4-29.5,11.73-29.5,11.73l-9.85-26.1S420,397.07,420,397.06h0s-2.3,4.41-4.33,8.34c-.89,1.7-1.72,3.33-2.3,4.44-1.92,3.69-1,5.08-.22,10.36a32.63,32.63,0,0,1-.65,10.83s-4.91,39.53-6,41.37-7.77,19.07-7.77,19.07H257.61l10-60.51s26.29,1.83,5.36,3.31S236.7,430,236.7,430s-.19-8.52,8.51-38.14,31.56-54.52,31.56-54.52A235.78,235.78,0,0,1,311.48,321a159.88,159.88,0,0,1,32.95-8S399,326,424.5,335.64,481.13,405.5,481.13,405.5Z"/><path class="cls-13" d="M376.66,360.64a48.5,48.5,0,0,0,1.55,9c1.17,4.75,1,10-9,20.51-8.41,8.94-14.38,10.28-14.38,10.28s-35.32-17.84-32-43.66,12.22-36.1,12.22-36.1,9.16-5.13,16.38-16.93,29.85,15,29.85,15Z"/><path class="cls-7" d="M449.2,293s-6.48,23.32-27,45.17-43.32,23.88-43.32,23.88-14.07-7-17.4-30.73,2.41-33.88,2.41-33.88,48.68-21.75,49.51-22S449.2,293,449.2,293Z"/><path class="cls-12" d="M295.85,431s6-18.16,9.34-31.31S310.74,380,310.74,380s2.22,8.15,0,20.92C308.61,413.19,295.85,431,295.85,431Z"/><polygon class="cls-5" points="551.94 385.4 692.99 385.4 659.67 491.47 514.92 491.47 551.94 385.4"/><path class="cls-4" d="M514.92,491.47H446.7V480.24a4.33,4.33,0,0,1,4.33-4.32h61.48l33-94.4H688l5,3.88h-141Z"/><path class="cls-3" d="M477.15,475.92s1.12-10.55,16.66-10.55c18.7,0,18.7,10.55,18.7,10.55Z"/><path class="cls-2" d="M479.08,471.39s-8.15-.4-10.51,1.2-1.94,3.33-1.94,3.33h12.45Z"/><polygon class="cls-6" points="323.7 453.57 337.3 400.95 399.22 433.16 466.6 413.44 444.15 491.93 387.56 502.02 314.26 489.06 323.7 453.57"/><path class="cls-9" d="M337.3,401l1.06-.3a6.19,6.19,0,0,1,4.53.43L399,429.64l61.52-17.7a6.23,6.23,0,0,1,6,1.51h0l-67.38,19.71Z"/><path class="cls-14" d="M343.92,401.6h0a8.88,8.88,0,0,1,8.35-.19L399,424.92l52.89-15.13a8.91,8.91,0,0,1,8.36,1.92l.27.23L399,429.64Z"/><path class="cls-4" d="M657.64,440.1h-3.89a1.67,1.67,0,1,1,0-3.33h3.89a1.67,1.67,0,0,1,0,3.33Z"/><path class="cls-4" d="M720,440.1h-7.8a1.67,1.67,0,1,1,0-3.33H720a1.67,1.67,0,1,1,0,3.33Zm-15.6,0h-7.8a1.67,1.67,0,1,1,0-3.33h7.8a1.67,1.67,0,1,1,0,3.33Zm-15.6,0H681a1.67,1.67,0,1,1,0-3.33h7.8a1.67,1.67,0,0,1,0,3.33Zm-15.6,0h-7.8a1.67,1.67,0,1,1,0-3.33h7.8a1.67,1.67,0,0,1,0,3.33Z"/><path class="cls-4" d="M733.39,440.1h-5.55a1.67,1.67,0,0,1,0-3.33h2.22v-2.22a1.67,1.67,0,1,1,3.33,0Z"/><path class="cls-4" d="M731.73,428.45a1.67,1.67,0,0,1-1.67-1.67V419a1.67,1.67,0,1,1,3.33,0v7.76A1.66,1.66,0,0,1,731.73,428.45Zm0-15.53a1.67,1.67,0,0,1-1.67-1.67v-7.76a1.67,1.67,0,1,1,3.33,0v7.76A1.66,1.66,0,0,1,731.73,412.92Zm0-15.53a1.67,1.67,0,0,1-1.67-1.67V388a1.67,1.67,0,1,1,3.33,0v7.76A1.66,1.66,0,0,1,731.73,397.39Zm0-15.53a1.67,1.67,0,0,1-1.67-1.67v-7.76a1.67,1.67,0,1,1,3.33,0v7.76A1.66,1.66,0,0,1,731.73,381.86Zm0-15.53a1.67,1.67,0,0,1-1.67-1.67V356.9a1.67,1.67,0,1,1,3.33,0v7.76A1.66,1.66,0,0,1,731.73,366.33Zm0-15.53a1.67,1.67,0,0,1-1.67-1.67v-7.76a1.67,1.67,0,1,1,3.33,0v7.76A1.66,1.66,0,0,1,731.73,350.8Zm0-15.53a1.67,1.67,0,0,1-1.67-1.67v-7.76a1.67,1.67,0,1,1,3.33,0v7.76A1.66,1.66,0,0,1,731.73,335.27Zm0-15.53a1.67,1.67,0,0,1-1.67-1.67v-7.76a1.67,1.67,0,1,1,3.33,0v7.76A1.66,1.66,0,0,1,731.73,319.74Zm0-15.53a1.66,1.66,0,0,1-1.67-1.66v-7.77a1.67,1.67,0,1,1,3.33,0v7.77A1.66,1.66,0,0,1,731.73,304.21Z"/><path class="cls-4" d="M731.73,288.68a1.66,1.66,0,0,1-1.67-1.66v-3.89a1.67,1.67,0,1,1,3.33,0V287A1.66,1.66,0,0,1,731.73,288.68Z"/><path class="cls-15" d="M472.39,264.62S468.64,290.35,449.2,293s-32.21-11.85-42.94-5.92c-13.1,7.22-9.35,13.51-11.48,20.08s-8.42,10.37-8.42,10.37,3-9.28,0-13-15.18-4.37-15.6,5.62.45,11.69-4.3,12.64c-9,1.8-28.74-18.41-19.71-45.9S377,249.34,377,249.34s11.76-19.94,40.35-14.25c25.6,5.09,23.33,23.51,39.43,34.62C463.87,274.59,472.39,264.62,472.39,264.62Z"/><path class="cls-7" d="M241.69,431.51s-8,22.75,13.15,34.41S345.63,483.7,362,483.7h29.71s13.6,2.22,23.6,2.77,18.14-5,18.88-17.21-1.11-18.7-17.59-15-2.61-5.27-8.55-5.41c-4.34-.1-12.46,11.94-16.34,14.16s-35.54-5.38-61.74-9.86c-24-4.1-26.57-3.62-37.48-8.14-4.23-1.76-2.22-12.76-2.22-12.76Z"/><path class="cls-9" d="M423.1,532.93s43.69,12.41,70.71,56.83,64.77,193.47,64.77,193.47-31.08,5.34-45.14,3.68-44.08-147.16-76.09-158.27S375,623.15,375,623.15L390.43,552Z"/><path class="cls-6" d="M374.66,543.12s42,2.22,69,46.64,64.76,193.47,64.76,193.47-31.07,5.34-45.14,3.68-44.08-147.16-76.09-158.27-62.37-5.49-62.37-5.49L340.32,552Z"/><path class="cls-3" d="M569.11,792.9v0s-7.54,10.09-12.73,11.39-5.18-3.71,0-6.49,5.71-6.45,5.71-6.45h0l4.27.74S567.38,792.37,569.11,792.9Z"/><path class="cls-6" d="M167.84,802.13c0,37.65-18,49.7-33.58,53.06-1.35.27-2.69.5-4,.67-.21,0-.42.07-.64.08-.39.06-.79.1-1.18.13l-1,.09c-.18,0-.37,0-.56,0-.52,0-1.07.06-1.64.08l-1,0q-1.38,0-2.67,0l-1,0c-.56,0-1.1,0-1.63-.08l-.56,0-1-.09-1.2-.13c-.2,0-.41-.05-.62-.08-1.31-.17-2.63-.4-4-.67C96,851.83,78,839.78,78,802.13c0-39.54,22.87-37,23.15-67.33.17-18.64-12.17-35.67-18-42.72a2.08,2.08,0,0,1,1.61-3.41h76.39a2.09,2.09,0,0,1,1.61,3.41c-5.88,7-18.21,24.08-18,42.72C145,765.13,167.84,762.59,167.84,802.13Z"/><path class="cls-4" d="M122.67,658.29c-.26-.4-.53-.8-.82-1.2a.56.56,0,0,1,0-.08,69.94,69.94,0,0,0-6.92-8.33c-.54-.56-1.11-1.12-1.68-1.68a66.55,66.55,0,0,0-8.41-6.77,67.52,67.52,0,0,0-22.94-9.73,83.81,83.81,0,0,0-9.9-1.63C35.63,625.14.83,668,0,669c1-.35,43.31-16.39,69.51-3.85,13.2,6.33,21.52,14.88,26.72,23.5h39.49C133.43,679.31,129.5,668.29,122.67,658.29ZM85.6,653c-15.88-13-43.57-3.69-43.85-3.6a.52.52,0,1,1-.34-1c.28-.1,28.53-9.65,44.87,3.77a64,64,0,0,1,13.07,14.44c0,.65,0,1.3,0,1.94A62.34,62.34,0,0,0,85.6,653Z"/><path class="cls-16" d="M144.07,663a108.42,108.42,0,0,0-6.88,9.15c.09-.78.19-1.56.31-2.35h0c1.74-2.49,3.93-5.41,6.44-8.34a77,77,0,0,0-1.19-8.37,68.55,68.55,0,0,0-3.93-12.89,62.83,62.83,0,0,0-5-9.62c-.2-.32-.4-.63-.61-.94a66.57,66.57,0,0,0-11.37-13,78.84,78.84,0,0,0-12-8.74c-31.67-19-82.21,5.79-82.21,5.79s32.84,2.35,54.23,16.8a48.31,48.31,0,0,1,10.35,9.24,68.22,68.22,0,0,1,8.65,13.4,56.81,56.81,0,0,1,5.65,30.33h0c0,.59-.1,1.16-.18,1.73-.13,1.19-.3,2.35-.5,3.46h36.44A99,99,0,0,0,144.07,663ZM70,612.94a.5.5,0,0,1-.47-.56.53.53,0,0,1,.56-.49c.28,0,27.81,2.72,38.14,21.44-.21.35-.41.71-.61,1.07,0-.09-.11-.2-.16-.31C97.48,615.64,70.23,613,70,612.94Z"/><path class="cls-16" d="M171.64,628.87a84.32,84.32,0,0,0-9.91,1.63,67.59,67.59,0,0,0-22.91,9.73,65.35,65.35,0,0,0-15.39,14.55c-.52.7-1,1.39-1.53,2.1a1.13,1.13,0,0,0-.1.13c-7.37,10.36-11.55,21.91-13.92,31.66h39.49c5.19-8.62,13.51-17.17,26.72-23.5,26.2-12.54,68.54,3.5,69.5,3.85C242.76,668,208,625.14,171.64,628.87Zm36.07,22.7a.52.52,0,0,1-.68.3c-.26-.11-25.74-10.21-44.3-3.74-6.86,2.39-13.5,8.75-18.66,14.9h0a108.42,108.42,0,0,0-6.88,9.15c.09-.78.19-1.56.31-2.35h0c1.74-2.49,3.93-5.41,6.44-8.34,5.13-6,11.62-12,18.46-14.35,18.92-6.6,44.76,3.64,45,3.75A.52.52,0,0,1,207.71,651.57Z"/><path class="cls-17" d="M216,613.7s-32.83,2.35-54.24,16.8a48.2,48.2,0,0,0-10.33,9.24,67.81,67.81,0,0,0-8.65,13.38,57.89,57.89,0,0,0-5.25,16.71h0c-.12.79-.22,1.57-.31,2.35a58.63,58.63,0,0,0,.57,16.48H101.33a102.62,102.62,0,0,1-2-20.1c0-.64,0-1.29,0-1.94a78.9,78.9,0,0,1,1.5-13.49,66.15,66.15,0,0,1,3.94-12.91,63.21,63.21,0,0,1,2.79-5.83c.2-.36.4-.72.61-1.07a65.16,65.16,0,0,1,13.61-16.68,79.35,79.35,0,0,1,12-8.74C165.44,588.87,216,613.7,216,613.7Z"/><path class="cls-1" d="M99.35,666.63c0,.65,0,1.3,0,1.94A62.34,62.34,0,0,0,85.6,653c-15.88-13-43.57-3.69-43.85-3.6a.52.52,0,1,1-.34-1c.28-.1,28.53-9.65,44.87,3.77A64,64,0,0,1,99.35,666.63Z"/><path class="cls-1" d="M108.19,633.33c-.21.35-.41.71-.61,1.07,0-.09-.11-.2-.16-.31C97.48,615.64,70.23,613,70,612.94a.5.5,0,0,1-.47-.56.53.53,0,0,1,.56-.49C70.33,611.92,97.86,614.61,108.19,633.33Z"/><path class="cls-1" d="M119.84,680.33a.53.53,0,0,1-.53-.53c0-.33,0-33.54,14.95-51.49,17.27-20.7,50.59-16.46,50.92-16.41a.54.54,0,0,1,.46.59.52.52,0,0,1-.6.45c-.33,0-33.08-4.2-50,16-14.74,17.66-14.71,50.49-14.7,50.82a.53.53,0,0,1-.53.53Z"/><path class="cls-1" d="M207.71,651.57a.52.52,0,0,1-.68.3c-.26-.11-25.74-10.21-44.3-3.74-6.86,2.39-13.5,8.75-18.66,14.9h0a108.42,108.42,0,0,0-6.88,9.15c.09-.78.19-1.56.31-2.35h0c1.74-2.49,3.93-5.41,6.44-8.34,5.13-6,11.62-12,18.46-14.35,18.92-6.6,44.76,3.64,45,3.75A.52.52,0,0,1,207.71,651.57Z"/><path class="cls-3" d="M708.82,506.46c0,10.64-3.61,13.33-3.61,13.33H149.88s-3.61-2.69-3.61-13.33c0-11.94,3.61-15,3.61-15H705.21S708.82,494.52,708.82,506.46Z"/><rect class="cls-2" x="173.94" y="519.79" width="253.23" height="330.24"/><rect class="cls-2" x="653.75" y="519.79" width="27.4" height="330.24"/><rect class="cls-4" x="427.17" y="733.78" width="116.25" height="116.25"/><rect class="cls-3" x="464.2" y="781.91" width="42.21" height="10" rx="5"/><rect class="cls-5" x="437.35" y="617.53" width="116.25" height="116.25"/><rect class="cls-3" x="474.37" y="665.66" width="42.21" height="10" rx="5"/><rect class="cls-8" x="184.45" y="532.93" width="232.22" height="302.84"/></g></g></svg>