<svg xmlns="http://www.w3.org/2000/svg" viewBox="0 0 591.48 652.63"><defs><style>.cls-1{fill:#f2f1f0;}.cls-2{fill:#929fff;}.cls-3{fill:#b8c2ff;}.cls-4{fill:#1e43c6;}.cls-5{fill:#3062ef;}.cls-6{fill:#ffbc48;}.cls-7{fill:#6774ff;}.cls-8{fill:#647df9;}.cls-9{fill:#f9a935;}.cls-10{fill:#e0e0e0;}.cls-11{fill:#587af4;}.cls-12{fill:#1730a4;}.cls-13{fill:#5e71fc;}.cls-14{fill:#f9c170;}.cls-15{fill:#0a0189;}.cls-16{fill:#2554d8;}.cls-17{fill:#2d68ea;}</style></defs><title>study_s</title><g id="Layer_2" data-name="Layer 2"><g id="Layer_1-2" data-name="Layer 1"><path class="cls-1" d="M299.35,294.34s84,18.5,163.79,4.39,135.49-26.5,107.13-70.43-36.37-71.75,1-89.12C638.12,108.13,532.42,8.71,352.68,1,170.24-6.78,53.87,43.63,123.84,108.13c37.18,34.28-38.14,51.35-57.6,72.4S15.34,238.86,95,266.39,299.35,294.34,299.35,294.34Z"/><rect class="cls-2" x="273.26" width="242.41" height="219.52" rx="30.35"/><path class="cls-3" d="M273.26,32.29H515.67a0,0,0,0,1,0,0V189.17a30.35,30.35,0,0,1-30.35,30.35H303.61a30.35,30.35,0,0,1-30.35-30.35V32.29A0,0,0,0,1,273.26,32.29Z"/><circle class="cls-4" cx="472.26" cy="17.27" r="3.3"/><circle class="cls-5" cx="483.58" cy="17.27" r="3.3"/><circle class="cls-6" cx="494.15" cy="17.27" r="3.3"/><rect class="cls-3" x="292.08" y="13.97" width="28.88" height="6.61" rx="3.3"/><rect class="cls-2" x="392.2" y="37" width="4.53" height="175.76" rx="2.27"/><rect class="cls-7" x="288.4" y="46.44" width="58.14" height="18.12" rx="9.06"/><rect class="cls-2" x="288.4" y="119.21" width="89.98" height="18.12" rx="9.06"/><rect class="cls-2" x="410.72" y="46.44" width="89.98" height="18.12" rx="9.06"/><rect class="cls-7" x="410.72" y="156.05" width="58.14" height="18.12" rx="9.06"/><path class="cls-2" d="M327.47,79.42H288.4a.38.38,0,1,1,0-.76h39.07a.38.38,0,1,1,0,.76Z"/><path class="cls-2" d="M341.63,92.26H288.4a.38.38,0,1,1,0-.75h53.23a.38.38,0,1,1,0,.75Z"/><path class="cls-2" d="M363.34,105.1H288.4a.38.38,0,1,1,0-.75h74.94a.38.38,0,0,1,0,.75Z"/><path class="cls-7" d="M327.47,154.33H288.4a.38.38,0,1,1,0-.75h39.07a.38.38,0,1,1,0,.75Z"/><path class="cls-7" d="M341.63,167.17H288.4a.37.37,0,0,1-.38-.37.38.38,0,0,1,.38-.38h53.23a.38.38,0,0,1,.38.38A.37.37,0,0,1,341.63,167.17Z"/><path class="cls-7" d="M363.34,180H288.4a.38.38,0,1,1,0-.76h74.94a.38.38,0,0,1,0,.76Z"/><path class="cls-7" d="M449.79,79.42H410.72a.38.38,0,1,1,0-.76h39.07a.38.38,0,0,1,0,.76Z"/><path class="cls-7" d="M464,92.26H410.72a.38.38,0,1,1,0-.75H464a.38.38,0,1,1,0,.75Z"/><path class="cls-7" d="M485.66,105.1H410.72a.38.38,0,1,1,0-.75h74.94a.38.38,0,1,1,0,.75Z"/><path class="cls-7" d="M449.79,118H410.72a.38.38,0,1,1,0-.76h39.07a.38.38,0,1,1,0,.76Z"/><path class="cls-7" d="M464,130.79H410.72a.38.38,0,0,1,0-.76H464a.38.38,0,0,1,0,.76Z"/><path class="cls-7" d="M485.66,143.63H410.72a.38.38,0,0,1-.38-.38.37.37,0,0,1,.38-.37h74.94a.37.37,0,0,1,.38.37A.38.38,0,0,1,485.66,143.63Z"/><path class="cls-7" d="M341.63,192.86H288.4a.38.38,0,1,1,0-.76h53.23a.38.38,0,1,1,0,.76Z"/><path class="cls-7" d="M363.34,205.7H288.4a.38.38,0,0,1-.38-.38.37.37,0,0,1,.38-.37h74.94a.36.36,0,0,1,.37.37A.37.37,0,0,1,363.34,205.7Z"/><path class="cls-2" d="M464,190.72H410.72a.38.38,0,0,1,0-.76H464a.38.38,0,0,1,0,.76Z"/><path class="cls-2" d="M485.66,203.56H410.72a.38.38,0,0,1-.38-.38.37.37,0,0,1,.38-.37h74.94a.37.37,0,0,1,.38.37A.38.38,0,0,1,485.66,203.56Z"/><path class="cls-8" d="M284.11,126.13H180.92l38.92-54.94h26.32q.45.54.84,1.11Z"/><path class="cls-4" d="M242.56,71.19H223.89l6.18-8.66h7.25a3.5,3.5,0,0,1,.23.35Z"/><path class="cls-9" d="M247,126.13a14.51,14.51,0,1,1-29,0Z"/><polygon class="cls-8" points="233.97 62.53 232.46 62.53 232.46 5.09 233.97 4.91 233.97 62.53"/><path class="cls-10" d="M159.94,523.75s-229.1,52.86-111.53,68,242.15.75,213.46,16.61-73.17,32.58-15.1,40.77c122.67,17.31,380.61-32.41,307.31-72.48C439.66,514.05,159.94,523.75,159.94,523.75Z"/><polygon class="cls-11" points="219.84 71.19 254.92 126.13 284.12 126.13 246.16 71.19 219.84 71.19"/><path class="cls-12" d="M396.45,570.62c-10.23-.31-19.07-8.11-29.31-13.5s-15.88-18.62-15.88-18.62,9.18-3,11.29-3.3c1.63-.22,13.89,1.82,19.59,2.8l2.9.5s.69.18,1.86.55h0c5,1.56,18.93,6.44,25.8,14.46C421.17,563.41,406.69,570.92,396.45,570.62Z"/><path class="cls-7" d="M375.61,533.12l1.26,5.25a27.71,27.71,0,0,1-9.95,1.88c-6,.13-4.15-8.68-4.15-8.68l6.67-2.89Z"/><path class="cls-7" d="M325.32,278.46a69.76,69.76,0,0,1,5.36,13.63c2.11,7.7,5,24.29,5,24.29V322l-17.16-.71s-8.51-24.93-13.16-29-8.94-12.57-8.94-12.57l10.07-7.45Z"/><path class="cls-5" d="M254.92,334.12H141.16L125.55,175s16.36,5,18.82,29.48c2.18,21.79-5.48,28.6-5.48,28.6l108.82-3Z"/><path class="cls-4" d="M149.71,334.12h-8.55L125.55,175s16.36,5,18.82,29.48c2.18,21.79-5.48,28.6-5.48,28.6Z"/><path class="cls-3" d="M144.37,204.47C141.91,180,125.55,175,125.55,175H243.9l3.81,55-108.82,3S146.55,226.26,144.37,204.47Z"/><path class="cls-4" d="M327.09,275.67a32.61,32.61,0,0,1-11.76,12c-8.8,5-20.05,8-20.05,8l-6.7-17.74s-3.07-7.92-3.08-7.93h0l-2.94,5.67-1.56,3c-1.31,2.52-.66,3.46-.15,7.05a22.29,22.29,0,0,1-.44,7.36s-3.34,26.87-4.1,28.13-5.28,13-5.28,13H175.14L181.93,293s17.87,1.24,3.65,2.24a64.18,64.18,0,0,1-24.66-2.89s-.13-5.79,5.78-25.93,21.46-37.06,21.46-37.06a159.67,159.67,0,0,1,23.6-11.13,107.74,107.74,0,0,1,22.4-5.46s37.06,8.85,54.43,15.42S327.09,275.67,327.09,275.67Z"/><path class="cls-13" d="M256.07,245.18a32.57,32.57,0,0,0,1.05,6.13c.8,3.23.65,6.78-6.1,13.95-5.72,6.08-9.78,7-9.78,7s-24-12.13-21.74-29.68S227.8,218,227.8,218a34.56,34.56,0,0,0,11.14-11.52c4.91-8,20.29,10.19,20.29,10.19Z"/><path class="cls-7" d="M305.39,199.21A82,82,0,0,1,287,229.92c-14,14.85-29.45,16.23-29.45,16.23s-9.56-4.78-11.83-20.89,1.64-23,1.64-23,33.1-14.78,33.66-15S305.39,199.21,305.39,199.21Z"/><path class="cls-12" d="M201.13,293s4.08-12.35,6.35-21.29,3.77-13.34,3.77-13.34,1.51,5.54,0,14.22C209.81,280.9,201.13,293,201.13,293Z"/><polygon class="cls-5" points="375.23 262.01 471.12 262.01 448.47 334.12 350.06 334.12 375.23 262.01"/><path class="cls-4" d="M350.06,334.12H303.69v-7.63a2.94,2.94,0,0,1,2.94-2.94h41.79l22.47-64.17h96.84l3.39,2.63H375.23Z"/><path class="cls-3" d="M324.39,323.55s.75-7.17,11.32-7.17c12.71,0,12.71,7.17,12.71,7.17Z"/><path class="cls-2" d="M325.7,320.47s-5.54-.27-7.15.81-1.32,2.27-1.32,2.27h8.47Z"/><polygon class="cls-6" points="220.06 308.35 229.31 272.58 271.41 294.48 317.21 281.08 301.95 334.43 263.48 341.29 213.64 332.48 220.06 308.35"/><path class="cls-9" d="M229.31,272.58l.72-.2a4.22,4.22,0,0,1,3.08.29l38.17,19.42,41.82-12a4.21,4.21,0,0,1,4.11,1h0l-45.8,13.4Z"/><path class="cls-14" d="M233.81,273h0a6,6,0,0,1,5.67-.14l31.8,16,36-10.29a6,6,0,0,1,5.68,1.3l.18.16-41.82,12Z"/><path class="cls-4" d="M447.09,299.2h-2.65a1.14,1.14,0,0,1,0-2.27h2.65a1.14,1.14,0,0,1,0,2.27Z"/><path class="cls-4" d="M489.51,299.2h-5.3a1.14,1.14,0,0,1,0-2.27h5.3a1.14,1.14,0,0,1,0,2.27Zm-10.6,0H473.6a1.14,1.14,0,0,1,0-2.27h5.31a1.14,1.14,0,0,1,0,2.27Zm-10.61,0H463a1.14,1.14,0,1,1,0-2.27h5.3a1.14,1.14,0,0,1,0,2.27Zm-10.61,0h-5.3a1.14,1.14,0,0,1,0-2.27h5.3a1.14,1.14,0,1,1,0,2.27Z"/><path class="cls-4" d="M498.59,299.2h-3.78a1.14,1.14,0,0,1,0-2.27h1.51v-1.51a1.14,1.14,0,0,1,2.27,0Z"/><path class="cls-4" d="M497.46,291.28a1.14,1.14,0,0,1-1.14-1.14v-5.28a1.14,1.14,0,0,1,2.27,0v5.28A1.14,1.14,0,0,1,497.46,291.28Zm0-10.56a1.14,1.14,0,0,1-1.14-1.13v-5.28a1.14,1.14,0,1,1,2.27,0v5.28A1.14,1.14,0,0,1,497.46,280.72Zm0-10.56a1.14,1.14,0,0,1-1.14-1.13v-5.28a1.14,1.14,0,0,1,2.27,0V269A1.14,1.14,0,0,1,497.46,270.16Zm0-10.56a1.13,1.13,0,0,1-1.14-1.13v-5.28a1.14,1.14,0,0,1,2.27,0v5.28A1.13,1.13,0,0,1,497.46,259.6Zm0-10.55a1.14,1.14,0,0,1-1.14-1.14v-5.28a1.14,1.14,0,0,1,2.27,0v5.28A1.14,1.14,0,0,1,497.46,249.05Zm0-10.56a1.14,1.14,0,0,1-1.14-1.14v-5.27a1.14,1.14,0,1,1,2.27,0v5.27A1.14,1.14,0,0,1,497.46,238.49Zm0-10.56a1.14,1.14,0,0,1-1.14-1.13v-5.28a1.14,1.14,0,0,1,2.27,0v5.28A1.14,1.14,0,0,1,497.46,227.93Zm0-10.56a1.14,1.14,0,0,1-1.14-1.13V211a1.14,1.14,0,0,1,2.27,0v5.28A1.14,1.14,0,0,1,497.46,217.37Zm0-10.56a1.13,1.13,0,0,1-1.14-1.13V200.4a1.14,1.14,0,0,1,2.27,0v5.28A1.13,1.13,0,0,1,497.46,206.81Z"/><path class="cls-4" d="M497.46,196.26a1.14,1.14,0,0,1-1.14-1.14v-2.64a1.14,1.14,0,0,1,2.27,0v2.64A1.14,1.14,0,0,1,497.46,196.26Z"/><path class="cls-15" d="M321.15,179.9s-2.55,17.49-15.76,19.31-21.9-8.05-29.2-4c-8.9,4.91-6.36,9.18-7.8,13.65a14.52,14.52,0,0,1-5.73,7s2-6.31,0-8.86-10.32-3-10.6,3.82.3,8-2.93,8.59c-6.13,1.23-19.53-12.51-13.4-31.2s20.58-18.73,20.58-18.73,8-13.55,27.43-9.69c17.4,3.46,15.86,16,26.8,23.54C315.36,186.68,321.15,179.9,321.15,179.9Z"/><path class="cls-7" d="M164.31,293.35s-5.41,15.48,8.94,23.4,61.72,12.08,72.86,12.08h20.2s9.25,1.51,16.05,1.89,12.33-3.4,12.83-11.7-.75-12.71-11.95-10.19-1.78-3.59-5.82-3.69c-2.95-.07-8.47,8.12-11.11,9.63s-24.16-3.65-42-6.7c-16.29-2.79-18.07-2.46-25.48-5.54-2.87-1.19-1.51-8.67-1.51-8.67Z"/><path class="cls-9" d="M287.64,362.31s29.7,8.43,48.07,38.63,44,131.53,44,131.53-21.12,3.63-30.69,2.5-30-100-51.73-107.6a92.34,92.34,0,0,0-42.4-3.73l10.51-48.37Z"/><path class="cls-6" d="M254.71,369.23s28.57,1.51,46.94,31.71,44,131.53,44,131.53S324.55,536.1,315,535s-30-100-51.73-107.6a92.34,92.34,0,0,0-42.4-3.73l10.5-48.37Z"/><path class="cls-3" d="M386.9,539.05h0s-5.12,6.87-8.65,7.75-3.53-2.52,0-4.41,3.88-4.39,3.88-4.39h0l2.9.5S385.73,538.68,386.9,539.05Z"/><path class="cls-6" d="M114.1,545.32c0,25.59-12.2,33.78-22.82,36.07-.92.18-1.83.34-2.71.46l-.44,0c-.26,0-.53.07-.8.09l-.69.06c-.12,0-.24,0-.38,0l-1.11,0-.68,0H82.65l-.67,0-1.12,0-.38,0L79.8,582c-.29,0-.55,0-.81-.09l-.42,0c-.89-.12-1.79-.28-2.72-.46C65.24,579.1,53,570.91,53,545.32c0-26.88,15.55-25.15,15.74-45.77.12-12.68-8.27-24.25-12.26-29a1.42,1.42,0,0,1,1.09-2.33h51.93a1.43,1.43,0,0,1,1.1,2.33c-4,4.79-12.38,16.36-12.27,29C98.56,520.17,114.1,518.44,114.1,545.32Z"/><path class="cls-4" d="M83.4,447.53l-.56-.82,0,0A46.86,46.86,0,0,0,78.1,441L77,439.86a44.33,44.33,0,0,0-5.72-4.61,45.79,45.79,0,0,0-15.6-6.61,55.91,55.91,0,0,0-6.73-1.11C24.22,425,.57,454.12,0,454.82c.65-.23,29.45-11.13,47.25-2.61,9,4.3,14.63,10.11,18.17,16H92.27A63.65,63.65,0,0,0,83.4,447.53Zm-25.2-3.59c-10.8-8.87-29.63-2.51-29.81-2.44a.37.37,0,0,1-.46-.23.35.35,0,0,1,.22-.45c.19-.07,19.4-6.56,30.51,2.57a43.55,43.55,0,0,1,8.89,9.81c0,.44,0,.89,0,1.32A42.21,42.21,0,0,0,58.2,443.94Z"/><path class="cls-16" d="M97.94,450.76A75.46,75.46,0,0,0,93.27,457c.06-.53.13-1.06.21-1.6h0c1.18-1.68,2.67-3.67,4.38-5.66a54.1,54.1,0,0,0-.81-5.69,47.4,47.4,0,0,0-2.67-8.77A43.13,43.13,0,0,0,91,428.71c-.14-.21-.27-.43-.42-.63a44.78,44.78,0,0,0-7.73-8.86,54.69,54.69,0,0,0-8.13-5.94c-21.53-12.95-55.9,3.94-55.9,3.94s22.34,1.59,36.87,11.42a32.4,32.4,0,0,1,7,6.28A46.2,46.2,0,0,1,68.56,444a38.68,38.68,0,0,1,3.85,20.62h0c0,.4-.08.78-.13,1.17-.09.81-.2,1.6-.34,2.36H96.71A67.15,67.15,0,0,0,97.94,450.76ZM47.56,416.7a.34.34,0,0,1-.32-.38.36.36,0,0,1,.39-.33c.18,0,18.9,1.84,25.92,14.57l-.41.73c0-.06-.08-.14-.11-.21C66.27,418.53,47.75,416.72,47.56,416.7Z"/><path class="cls-16" d="M116.69,427.53a57.09,57.09,0,0,0-6.74,1.11,45.69,45.69,0,0,0-15.57,6.61,44.49,44.49,0,0,0-10.47,9.9c-.35.47-.7.94-1,1.42a.31.31,0,0,1-.07.09,63,63,0,0,0-9.46,21.53h26.85c3.53-5.87,9.18-11.68,18.17-16,17.8-8.52,46.59,2.38,47.24,2.61C165,454.12,141.38,425,116.69,427.53ZM141.21,443a.35.35,0,0,1-.47.2c-.17-.07-17.5-6.93-30.11-2.54-4.66,1.63-9.18,5.95-12.69,10.13h0A75.46,75.46,0,0,0,93.27,457c.06-.53.13-1.06.21-1.6h0c1.18-1.68,2.67-3.67,4.38-5.66,3.48-4.06,7.9-8.14,12.54-9.76,12.87-4.49,30.44,2.48,30.61,2.55A.35.35,0,0,1,141.21,443Z"/><path class="cls-17" d="M146.82,417.22S124.5,418.81,110,428.64a32.82,32.82,0,0,0-7,6.28,46.24,46.24,0,0,0-5.87,9.1,39.33,39.33,0,0,0-3.57,11.35h0c-.08.54-.15,1.07-.21,1.6a39.78,39.78,0,0,0,.39,11.21H68.89a70.06,70.06,0,0,1-1.37-13.67c0-.43,0-.88,0-1.32a52.94,52.94,0,0,1,1-9.17,45.35,45.35,0,0,1,2.68-8.78c.56-1.33,1.19-2.65,1.9-4l.41-.73a44.38,44.38,0,0,1,9.25-11.34,55.33,55.33,0,0,1,8.14-5.94C112.47,400.33,146.82,417.22,146.82,417.22Z"/><path class="cls-1" d="M67.55,453.2c0,.44,0,.89,0,1.32a42.21,42.21,0,0,0-9.32-10.58c-10.8-8.87-29.63-2.51-29.81-2.44a.37.37,0,0,1-.46-.23.35.35,0,0,1,.22-.45c.19-.07,19.4-6.56,30.51,2.57A43.55,43.55,0,0,1,67.55,453.2Z"/><path class="cls-1" d="M73.55,430.56l-.41.73c0-.06-.08-.14-.11-.21-6.76-12.55-25.28-14.36-25.47-14.38a.34.34,0,0,1-.32-.38.36.36,0,0,1,.39-.33C47.81,416,66.53,417.83,73.55,430.56Z"/><path class="cls-1" d="M81.47,462.51a.36.36,0,0,1-.36-.35c0-.23,0-22.81,10.17-35C103,413.08,125.67,416,125.9,416a.36.36,0,0,1,.3.41.34.34,0,0,1-.4.3c-.23,0-22.49-2.85-34,10.9-10,12-10,34.33-10,34.55a.36.36,0,0,1-.36.36Z"/><path class="cls-1" d="M141.21,443a.35.35,0,0,1-.47.2c-.17-.07-17.5-6.93-30.11-2.54-4.66,1.63-9.18,5.95-12.69,10.13h0A75.46,75.46,0,0,0,93.27,457c.06-.53.13-1.06.21-1.6h0c1.18-1.68,2.67-3.67,4.38-5.66,3.48-4.06,7.9-8.14,12.54-9.76,12.87-4.49,30.44,2.48,30.61,2.55A.35.35,0,0,1,141.21,443Z"/><path class="cls-3" d="M481.88,344.31c0,7.24-2.45,9.06-2.45,9.06H101.89s-2.45-1.82-2.45-9.06c0-8.11,2.45-10.19,2.45-10.19H479.43S481.88,336.2,481.88,344.31Z"/><rect class="cls-2" x="118.25" y="353.37" width="172.16" height="224.51"/><rect class="cls-2" x="444.44" y="353.37" width="18.63" height="224.51"/><rect class="cls-4" x="290.41" y="498.85" width="79.03" height="79.03"/><rect class="cls-3" x="315.58" y="531.57" width="28.69" height="6.8" rx="3.4"/><rect class="cls-5" x="297.32" y="419.82" width="79.03" height="79.03"/><rect class="cls-3" x="322.49" y="452.54" width="28.69" height="6.8" rx="3.4"/><rect class="cls-8" x="125.39" y="362.31" width="157.87" height="205.88"/></g></g></svg>