<svg xmlns="http://www.w3.org/2000/svg" viewBox="0 0 55.12 94.21"><defs><style>.cls-1,.cls-2,.cls-3{fill:none;}.cls-1{stroke:#5ca0d7;stroke-width:3px;}.cls-1,.cls-2,.cls-3,.cls-5,.cls-6,.cls-9{stroke-miterlimit:10;}.cls-2{stroke:#e21c2e;}.cls-3{stroke:#e62438;}.cls-4{fill:#ffed00;}.cls-5,.cls-8{fill:#fff;}.cls-5,.cls-6{stroke:#fff;stroke-width:0.25px;}.cls-6,.cls-7{fill:#86be55;}.cls-9{fill:#009640;stroke:#86be55;stroke-width:0.5px;}</style></defs><title>bocal_science</title><g id="Layer_2" data-name="Layer 2"><g id="Layer_1-2" data-name="Layer 1"><path class="cls-1" d="M53.62,67.88a25.11,25.11,0,0,1-50.21,0A24.9,24.9,0,0,1,24.18,43.43V36.75H18.3a1.94,1.94,0,1,1,0-3.88H38.73a2,2,0,0,1,2,1.94,1.91,1.91,0,0,1-.58,1.37,2,2,0,0,1-1.38.57H32.86v6.68A24.9,24.9,0,0,1,53.62,67.88Z"/><line class="cls-2" x1="26.65" y1="42.41" x2="31.41" y2="42.41"/><line class="cls-2" x1="27.67" y1="40.83" x2="31.41" y2="40.83"/><line class="cls-2" x1="29.54" y1="37.3" x2="31.41" y2="37.3"/><line class="cls-3" x1="28.52" y1="39.26" x2="31.41" y2="39.26"/><path class="cls-4" d="M7.47,63.07s3.75,7,11.83,6.23S41.17,64,41.17,64,50,60.42,51,67s-3.74,14-3.74,14S41,89.52,30.72,89.71a26.11,26.11,0,0,1-19.9-8.62C7.87,77.81,6.66,70.71,6.49,67.9,6.13,62.07,6.81,62.57,7.47,63.07Z"/><circle class="cls-5" cx="35.31" cy="70.57" r="2.14"/><circle class="cls-5" cx="18.49" cy="76.45" r="5.11"/><circle class="cls-5" cx="33.96" cy="79" r="2.55"/><circle class="cls-6" cx="36.54" cy="52.53" r="2.14"/><circle class="cls-6" cx="19.72" cy="58.41" r="5.11"/><circle class="cls-6" cx="35.19" cy="60.96" r="2.55"/><path class="cls-7" d="M25,26.41s-4.94,3.07-12.43-1.07S0,4.89,0,4.89,6.72,6.4,11.56,8c2,.66,9.16,3.75,11.56,7.36s3.66,10.42,3.66,10.42Z"/><path class="cls-8" d="M25.06,27.47a40.21,40.21,0,0,0-3.63-3.64,41.06,41.06,0,0,0-4.09-3.22A27.59,27.59,0,0,0,7.81,16.2a28.65,28.65,0,0,1,10.5,2.66,43.66,43.66,0,0,1,4.89,2.55,44.63,44.63,0,0,1,4.6,3.15Z"/><path class="cls-7" d="M32.36,24.48S29.43,19.39,33.86,12s21-12,21-12-1.74,6.73-3.48,11.56c-.74,2-4.09,9.1-7.81,11.41S33,26.31,33,26.31Z"/><path class="cls-8" d="M31.68,27.51a38.08,38.08,0,0,1,2.33-5c.84-1.55,1.7-3,2.58-4.5s1.76-2.9,2.68-4.36,1.83-3,2.93-4.59a11.58,11.58,0,0,1,0,5.76A18.35,18.35,0,0,1,40,20.06a20.23,20.23,0,0,1-3.55,4.37A14.6,14.6,0,0,1,31.68,27.51Z"/><line class="cls-9" x1="23.6" y1="57.41" x2="36.54" y2="52.53"/><line class="cls-9" x1="35.85" y1="60.96" x2="36.54" y2="52.53"/></g></g></svg>