<svg xmlns="http://www.w3.org/2000/svg" xmlns:xlink="http://www.w3.org/1999/xlink" viewBox="0 0 457.37 198.05"><defs><style>.cls-1{fill:none;}.cls-2{clip-path:url(#clip-path);}</style><clipPath id="clip-path"><path class="cls-1" d="M114.09,46.43,104,57.14v79.14l9.06,9H79.16l10.25-9V84.42l-23.36,67.2H59l-.59-2.08h6.41L89.41,77.87V66.08L62,145.22H56.83L36.64,83V123.8q0,8.17,1,11.56a20.12,20.12,0,0,0,4.87,7.47l6.63,8.79H10.63L9.3,149.54H45.48l-2.72-4.24H9.89l1.55-.85q8.18-4.69,10.79-9.52c1.75-3.2,2.62-8.28,2.62-15.21V56l-9.73-9.56h38.1L42.54,56.53,63.39,121l2.66-6.71L47.18,57.14l9.65-7.47L58.38,51l-9.21,6.78,17.54,53.71,19-54.94-9-10.1ZM30.67,64.7V120q0,12.72,2.32,17.5t9.62,6.93L42,143.3q-7.23-5.25-7.22-15.11V77Zm87.55-12.26-8.33,6.24v77.68l12.83,15.26H83.58l-1-2.08h35.67L108,137.44V57.37l8.69-6.24Zm110-33.13.45.61-.74.85A166.14,166.14,0,0,0,206.21,49.9l-4.72,8-27.41,45.85v31.29l10.69,10.25H148.88l10.61-10.25V103.76L141.8,75.33,138,68.93a104.15,104.15,0,0,0-8.59-12.48,80.15,80.15,0,0,0-9.91-9.32l-.81-.7h37.22l-9.14,9.94,24.54,38.69,2.36-3.93L151.75,56.37l7.74-7.7L161,49.9l-6.71,6.47,20.41,32.91,16.51-27.2q7.16-11.86,7.15-17.73,0-4.93-6.27-11.25,21.45-5.38,35.23-13.33Zm3.32,4.62v3.16l-.74.77a101.59,101.59,0,0,0-10.64,12.33Q215.71,46.36,207,60.92l-26.68,43.92v30.21l13.12,16.57H147.26l-.89-2.08h43.11l-11.2-14.49V104.3l27.19-44.84,4.28-7.09Q221.17,33.34,231.56,23.93Zm-6,31.75A71.36,71.36,0,0,1,263.1,45.12q15.63,0,25.76,7.09t10.13,18a22.21,22.21,0,0,1-6.63,15.84q-6.63,6.9-18.13,10a139.32,139.32,0,0,0,13.82,28.51q8.73,13.88,17.5,21.27l-1.11.38a95.28,95.28,0,0,0-21.51,11.1l-1.11.77-.37-2.47q-4.71-29.82-13.19-50.55l-.29-.77a51.6,51.6,0,0,1-13.64,3.93l-.59.08v28.82l13,14.49h-38.1l-1.18-2.08h35.08l-10.68-11.87v-31l1.54-.24a47.24,47.24,0,0,0,14.08-3.46c-.3-.62-.47-1-.52-1.16l-.73-2.23c-.05-.16-.18-.47-.37-.93q-4.57,1.4-17.25,3l-.81.15v34.37l8.4,9.17H223.6l9.58-9.17V110.24l-.59.07a73.47,73.47,0,0,0-7.74,2.24l-.58.23-.67-1.54a40.69,40.69,0,0,1,5.09-1.77l3.9-1,.59-.15v-4a37.94,37.94,0,0,0-10.83,2l-.81.31a38.94,38.94,0,0,1,1.47-5c.1-.21.44-1.36,1-3.47l.23-.69c2.21.15,3.93.23,5.15.23a28.09,28.09,0,0,0,3.69-.23V59.53a44.7,44.7,0,0,0-7-3.62Zm22.25-2V95.21a21.12,21.12,0,0,0,4.06-.38V56.91a35.78,35.78,0,0,1,9.72-1.15q14.37,0,19.53,9.86a39.28,39.28,0,0,0-9.58-6.36,25.51,25.51,0,0,0-9.87-1.73,30.42,30.42,0,0,0-7.89.92V94.83l.81-.16q14.52-2.78,21.56-8.75a19.39,19.39,0,0,0,7-15.52,18,18,0,0,0-6.34-14.14q-6.35-5.59-16-5.59A26.08,26.08,0,0,0,247.77,53.68Zm35.6,46.23Q288,115.8,299.8,131a79.24,79.24,0,0,0,18.65,17,113.73,113.73,0,0,0-31.69,14.33l-.67.46-1.47-1.23a102.83,102.83,0,0,1,30-14.18q-21.23-14.79-33.38-47.31l-.44-1.31q22.54-8.94,22.55-27.28,0-7.56-5.82-16.49Q305,62.07,305,73,305,90.74,283.37,99.91Zm102.8-53.48-7.66,9.1,12.08,33.59,3-1.69L382.63,57.07l7.81-9.4,1.92.84-7.44,9,10.31,28.74c.59-.46.94-.74,1-.85l2.43-2.15a23.24,23.24,0,0,0,2.8-2.62,55.18,55.18,0,0,0,5.89,15.72c-1.42-.11-2.45-.16-3.09-.16q-7,0-10.24,2.31l13.33,37.84,11.06,8.94H381.23l10.17-8.94-8.18-22.5a84.88,84.88,0,0,0-12.45,16.26l-1.7-.46a98,98,0,0,1,13-16.88l.59-.77-1.4-3.39a67.76,67.76,0,0,0-14.52,17.72l-1.32-2.23q-3.84-6.4-9.8-14.57l-.74-.92q-5.67,13.17-5.67,21.42a19.08,19.08,0,0,0,1.58,8.21q1.59,3.34,7.63,11.21l1.62,2.16h-39.8l-1.47-2.08h37.51L355,147.92a50.93,50.93,0,0,1-6.38-9.59,20,20,0,0,1-1.51-8.06q0-7.86,6.12-23.42L350,103.3c-.64,1.65-1.45,4.06-2.44,7.25l-2.43,7.86a36.53,36.53,0,0,0-2,10.48,16.25,16.25,0,0,0,1.4,7.16,38.24,38.24,0,0,0,5.9,7.78c.29.31.74.8,1.33,1.47H314.91A44.51,44.51,0,0,0,331.6,130q6.15-9.63,12.2-29.74l.29-1.08q-3.9-3.47-11.27-4.24a56.24,56.24,0,0,0,6.26-13.17c.69.66,1.11,1.07,1.25,1.23l3.32,3.23a38.13,38.13,0,0,0,4.05,3.47L349,86.27l-.89-.77c-2.45-2.26-4.52-4.08-6.19-5.47l-.66-.54,1.18-1.69A56.93,56.93,0,0,1,350,84l10-28.82-7.81-8.79Zm-21.52,15.8L352.93,94.59a105.9,105.9,0,0,1,9.66,11.87l3.39,4.93s.29.39.73,1a5.87,5.87,0,0,0,.74-.84l1-1.31c.15-.21.42-.54.81-1a79.14,79.14,0,0,0-12-15l9.43-26ZM368,71.17l-8.11,22.35a8.64,8.64,0,0,1,.74.92l3,3.54a77.27,77.27,0,0,1,6.19,8.64l.74,1.15a67.13,67.13,0,0,1,7.51-8.24Zm40,13.18q1.62,6.93,8.11,19c-1.08-.16-1.7-.23-1.84-.23l-6-.54q-4-.39-5.9-.39c-.19,0-.69,0-1.47.08l12.31,34.14,16.43,15.18H387l-1.4-2.08h39.13l-13.26-12.26L398.33,101a21.68,21.68,0,0,1,5.75-.69,63.4,63.4,0,0,1,8.84.69l-.88-1.7a68.38,68.38,0,0,1-6.34-16.41Z"/></clipPath></defs><title>logo_assos</title><g id="Layer_2" data-name="Layer 2"><g id="Layer_1-2" data-name="Layer 1"><g class="cls-2"><image width="320" height="160" transform="scale(1.43 1.24)" xlink:href="../mali_flag.jpg"/></g></g></g></svg>