<svg xmlns="http://www.w3.org/2000/svg" xmlns:xlink="http://www.w3.org/1999/xlink" viewBox="0 0 425.49 267.3"><defs><style>.cls-1{font-size:120px;font-family:Algerian;}.cls-1,.cls-2,.cls-3,.cls-4{fill:none;}.cls-2{stroke:#62b667;stroke-width:3px;}.cls-10,.cls-2,.cls-3,.cls-4,.cls-6,.cls-7{stroke-miterlimit:10;}.cls-3{stroke:#e21c2e;}.cls-4{stroke:#e62438;}.cls-5{fill:#ffed00;}.cls-6,.cls-9{fill:#fff;}.cls-6,.cls-7{stroke:#fff;stroke-width:0.25px;}.cls-7,.cls-8{fill:#86be55;}.cls-10{fill:#009640;stroke:#86be55;stroke-width:0.5px;}.cls-11{clip-path:url(#clip-path);}</style><clipPath id="clip-path" transform="translate(-2.04)"><text class="cls-1" transform="translate(2.04 229.47)">M YRA</text></clipPath></defs><title>logo_Myra</title><g id="Layer_2" data-name="Layer 2"><g id="logo_myra"><path class="cls-2" d="M203.69,194.4c0,24-24.46,43.44-54.62,43.44S94.42,218.39,94.42,194.4c0-21.44,19.53-39.24,45.2-42.79V139.92H126.83c-2.35,0-4.25-1.53-4.25-3.4a3.11,3.11,0,0,1,1.25-2.4,4.8,4.8,0,0,1,3-1h44.46c2.35,0,4.26,1.53,4.26,3.39a3.09,3.09,0,0,1-1.26,2.41,4.82,4.82,0,0,1-3,1H158.51v11.69C184.17,155.16,203.69,173,203.69,194.4Z" transform="translate(-2.04)"/><line class="cls-3" x1="142.94" y1="149.82" x2="153.31" y2="149.82"/><line class="cls-3" x1="145.16" y1="147.06" x2="153.31" y2="147.06"/><line class="cls-3" x1="149.23" y1="140.88" x2="153.31" y2="140.88"/><line class="cls-4" x1="147.01" y1="144.31" x2="153.31" y2="144.31"/><path class="cls-5" d="M103.26,186s8.15,12.23,25.73,10.91,47.6-9.26,47.6-9.26,19.29-6.28,21.44,5.29-8.15,24.6-8.15,24.6a53.64,53.64,0,0,1-36,15.08c-22.3.33-36.88-9.34-43.31-15.08s-9.06-18.17-9.43-23.08C100.34,184.22,101.81,185.11,103.26,186Z" transform="translate(-2.04)"/><ellipse class="cls-6" cx="161.8" cy="199.1" rx="4.65" ry="3.74"/><ellipse class="cls-6" cx="125.2" cy="209.39" rx="11.11" ry="8.94"/><ellipse class="cls-6" cx="158.86" cy="213.86" rx="5.56" ry="4.47"/><ellipse class="cls-7" cx="164.47" cy="167.53" rx="4.65" ry="3.74"/><ellipse class="cls-7" cx="127.87" cy="177.82" rx="11.11" ry="8.94"/><ellipse class="cls-7" cx="161.53" cy="182.29" rx="5.56" ry="4.47"/><path class="cls-8" d="M141.38,121.82s-10.76,5.38-27-1.87S87,84.17,87,84.17s14.62,2.63,25.16,5.37c4.43,1.15,19.92,6.56,25.15,12.87s8,18.24,8,18.24Z" transform="translate(-2.04)"/><path class="cls-9" d="M143.31,122.73a94,94,0,0,0-8.83-6.43,97.86,97.86,0,0,0-9.55-5.44,84.17,84.17,0,0,0-10.18-4.27A59.93,59.93,0,0,0,104,104a61,61,0,0,1,11,1.67,85.78,85.78,0,0,1,10.7,3.4A99.73,99.73,0,0,1,136,113.71a95.53,95.53,0,0,1,9.73,5.83Z" transform="translate(-2.04)"/><path class="cls-8" d="M157.43,118.45s-6.39-8.9,3.25-21.87,45.78-21,45.78-21-3.78,11.77-7.57,20.22c-1.6,3.56-8.89,15.94-17,20s-23.15,5.84-23.15,5.84Z" transform="translate(-2.04)"/><path class="cls-9" d="M155.93,123.74c2.1-2.74,4.25-5.29,6.34-7.86s4.17-5.11,6.14-7.71,3.86-5.24,5.61-8a74.3,74.3,0,0,0,4.81-8.73,23.8,23.8,0,0,1-2,10.17,39.38,39.38,0,0,1-5.22,9,48.72,48.72,0,0,1-7.08,7.48A37.9,37.9,0,0,1,155.93,123.74Z" transform="translate(-2.04)"/><line class="cls-10" x1="136.31" y1="176.07" x2="164.47" y2="167.53"/><line class="cls-10" x1="162.97" y1="182.29" x2="164.47" y2="167.53"/><g class="cls-11"><image width="320" height="160" transform="translate(0) scale(1.33 1.67)" xlink:href="../mali_flag.jpg"/></g></g></g></svg>