<svg width="771" height="341" viewBox="0 0 771 341" fill="none" xmlns="http://www.w3.org/2000/svg">
<path fill-rule="evenodd" clip-rule="evenodd" d="M363.204 301.772C345.384 306.7 326.369 310.251 306.443 312.185C182.609 324.204 70.4608 269.261 55.9522 189.466C41.4436 109.671 130.069 35.2402 253.902 23.2207C310.631 17.7145 364.907 26.2609 408.467 44.8115C361.039 21.2682 299.007 9.84873 233.868 16.1802C104.706 28.7348 12.2402 106.328 27.3394 189.489C42.4385 272.65 159.385 329.887 288.547 317.333C315.203 314.742 340.297 309.381 363.204 301.772Z" fill="url(#paint0_linear)"/>
<path fill-rule="evenodd" clip-rule="evenodd" d="M380.221 281.687C334.039 300.039 275.127 304.073 218.578 289.241C132.615 266.694 80.2969 207.944 88.6897 149.971C89.3309 145.542 91.6889 136.713 91.6889 136.713C91.6889 136.713 94.8759 127.683 97.0632 123.219C128.47 59.1256 230.78 26.9993 327.997 49.7405C325.711 49.0737 323.399 48.4336 321.063 47.8207C219.914 21.2906 110.384 55.9697 76.4218 125.279C42.4593 194.587 96.9248 272.28 198.074 298.81C262.657 315.75 330.656 307.736 380.221 281.687Z" fill="url(#paint1_linear)"/>
<path fill-rule="evenodd" clip-rule="evenodd" d="M199.62 64.5089C260.806 37.9217 347.827 49.2949 405.691 92.8194C403.961 91.3024 402.18 89.7986 400.349 88.3095C343.222 41.8568 258.588 27.3093 211.314 55.8167C206.946 58.4509 203.049 61.3606 199.62 64.5089Z" fill="url(#paint2_linear)"/>
<path d="M175.353 204.328C170.649 204.328 166.425 203.2 162.681 200.944C158.985 198.688 156.081 195.616 153.969 191.728C151.905 187.84 150.873 183.52 150.873 178.768C150.873 174.064 151.809 169.648 153.681 165.52C155.601 161.392 158.433 158.056 162.177 155.512C165.969 152.92 170.529 151.624 175.857 151.624C181.137 151.624 185.985 153.088 190.401 156.016L190.041 152.128H193.929V168.832H191.337C190.857 164.368 189.273 160.888 186.585 158.392C183.945 155.848 180.537 154.576 176.361 154.576C172.953 154.576 169.833 155.536 167.001 157.456C164.217 159.328 162.009 162.016 160.377 165.52C158.745 169.024 157.929 173.08 157.929 177.688C157.929 182.104 158.793 186.064 160.521 189.568C162.249 193.024 164.577 195.736 167.505 197.704C170.433 199.624 173.673 200.584 177.225 200.584C180.441 200.584 183.537 199.864 186.513 198.424C189.489 196.984 191.937 194.944 193.857 192.304L195.729 193.816C192.945 197.704 189.753 200.44 186.153 202.024C182.553 203.56 178.953 204.328 175.353 204.328ZM196.77 200.8C197.97 200.8 198.93 200.536 199.65 200.008C200.37 199.432 200.946 198.712 201.378 197.848C201.858 196.936 202.41 195.592 203.034 193.816L203.754 191.8L218.586 151.408H220.314L236.37 192.376C236.898 193.672 237.354 195.088 237.738 196.624C238.122 198.112 238.29 199.336 238.242 200.296L243.138 200.008V203.176H226.65V200.8C229.482 200.752 230.898 199.6 230.898 197.344C230.898 196.432 230.658 195.304 230.178 193.96L227.658 187.192L208.938 187.624C208.218 189.592 207.378 192.16 206.418 195.328C205.938 196.912 205.338 198.568 204.618 200.296L210.234 200.008V203.176H196.77V200.8ZM226.65 184.528L221.538 170.776L218.298 161.92H218.154L215.13 170.056L211.242 181L210.018 184.528H226.65ZM246.232 200.8C247.912 200.752 249.112 200.368 249.832 199.648C250.552 198.928 250.96 198.064 251.056 197.056C251.152 196 251.2 194.176 251.2 191.584V161.344C251.2 158.752 251.272 156.856 251.416 155.656L246.232 155.944V152.776C253.24 152.68 258.664 152.632 262.504 152.632C268.168 152.632 272.512 153.64 275.536 155.656C278.608 157.624 280.144 160.624 280.144 164.656C280.144 167.248 279.112 169.648 277.048 171.856C275.032 174.016 272.104 175.432 268.264 176.104V176.248C273.4 176.248 277.336 177.424 280.072 179.776C282.856 182.128 284.248 185.224 284.248 189.064C284.248 191.944 283.504 194.464 282.016 196.624C280.576 198.736 278.56 200.368 275.968 201.52C273.424 202.624 270.52 203.176 267.256 203.176H246.232V200.8ZM262.72 175.456C266.512 175.408 269.272 174.376 271 172.36C272.728 170.296 273.592 167.776 273.592 164.8C273.592 161.2 272.536 158.704 270.424 157.312C268.36 155.92 265.84 155.224 262.864 155.224C261.328 155.224 260.176 155.44 259.408 155.872C258.64 156.304 258.112 157 257.824 157.96C257.584 158.92 257.464 160.336 257.464 162.208V175.6L262.72 175.456ZM264.88 200.44C268.672 200.44 271.672 199.504 273.88 197.632C276.136 195.712 277.264 193 277.264 189.496C277.264 185.416 276.112 182.512 273.808 180.784C271.552 179.056 268.576 178.192 264.88 178.192C262.24 178.192 259.768 178.264 257.464 178.408V194.68C257.464 197.176 257.392 199.048 257.248 200.296C258.16 200.392 259.888 200.44 262.432 200.44H264.88ZM290.388 200.8C292.068 200.752 293.268 200.368 293.988 199.648C294.708 198.928 295.116 198.088 295.212 197.128C295.308 196.12 295.356 194.392 295.356 191.944V160.84C295.356 158.824 295.428 157.096 295.572 155.656L290.388 155.944V152.776H306.588V155.152C304.908 155.2 303.708 155.584 302.988 156.304C302.268 157.024 301.86 157.888 301.764 158.896C301.668 159.856 301.62 161.56 301.62 164.008V194.608C301.62 197.152 301.548 199.048 301.404 200.296L306.588 200.008V203.176H290.388V200.8ZM322.641 162.352H322.569L322.785 193.168C322.785 196.384 322.737 198.76 322.641 200.296L327.825 200.008V203.176H314.649V200.8C316.569 200.8 317.841 200.248 318.465 199.144C319.089 198.04 319.401 196.696 319.401 195.112L319.473 155.656L314.649 155.944V152.776H323.217L353.889 193.816H353.961L354.033 160.84C354.033 158.824 354.105 157.096 354.249 155.656L349.065 155.944V152.776H362.313V155.152C360.873 155.2 359.793 155.488 359.073 156.016C358.401 156.496 357.969 157.168 357.777 158.032C357.585 158.896 357.489 160.048 357.489 161.488V164.008L357.345 204.328H353.889L322.641 162.352ZM369.349 200.8C371.029 200.752 372.229 200.368 372.949 199.648C373.669 198.928 374.077 198.088 374.173 197.128C374.269 196.12 374.317 194.392 374.317 191.944V160.84C374.317 158.824 374.389 157.096 374.533 155.656L369.349 155.944V152.776H403.981L404.341 165.376H401.965C401.965 161.44 401.101 158.752 399.373 157.312C397.693 155.872 395.317 155.2 392.245 155.296L386.053 155.44C384.325 155.488 383.077 155.824 382.309 156.448C381.541 157.024 381.061 157.864 380.869 158.968C380.677 160.024 380.581 161.704 380.581 164.008V175.528L394.117 175.6L393.613 169.408H396.781V184.528H394.405C394.405 182.752 394.189 181.408 393.757 180.496C393.325 179.536 392.653 178.912 391.741 178.624C390.877 178.288 389.653 178.12 388.069 178.12L385.837 178.192L380.581 178.408V194.896C380.581 197.392 380.509 199.264 380.365 200.512L394.117 200.296C397.477 200.248 400.045 199.408 401.821 197.776C403.597 196.096 404.485 193.216 404.485 189.136H406.933L406.501 203.176H369.349V200.8ZM425.154 200.8C427.218 200.704 428.538 200.128 429.114 199.072C429.738 198.016 430.05 196.384 430.05 194.176V191.944L430.122 155.44L422.706 155.512C419.73 155.512 417.594 156.52 416.298 158.536C415.05 160.504 414.426 163.648 414.426 167.968H411.762L412.194 152.776H454.17L454.602 167.968H451.866C451.818 164.944 451.506 162.544 450.93 160.768C450.402 158.944 449.466 157.6 448.122 156.736C446.826 155.824 444.954 155.368 442.506 155.368H436.386L436.314 194.608C436.314 197.152 436.242 199.048 436.098 200.296L442.074 200.008V203.176H425.154V200.8Z" fill="#4146BB"/>
<path d="M479.861 198.65L480.725 197.426C489.125 185.858 497.357 173.618 505.421 160.706C507.245 157.874 508.781 155.714 510.029 154.226L491.669 154.514C488.789 154.61 486.653 155.618 485.261 157.538C483.869 159.458 483.173 162.434 483.173 166.466H480.725L481.157 151.562H516.869V154.082L491.021 193.322C489.245 195.962 487.613 197.954 486.125 199.298L503.621 199.01C506.981 198.962 509.669 197.954 511.685 195.986C513.749 194.018 514.781 191.09 514.781 187.202H517.229L516.797 201.962H479.861V198.65ZM520.278 199.586C521.478 199.586 522.438 199.322 523.158 198.794C523.878 198.218 524.454 197.498 524.886 196.634C525.366 195.722 525.918 194.378 526.542 192.602L527.262 190.586L542.094 150.194H543.822L559.878 191.162C560.406 192.458 560.862 193.874 561.246 195.41C561.63 196.898 561.798 198.122 561.75 199.082L566.646 198.794V201.962H550.158V199.586C552.99 199.538 554.406 198.386 554.406 196.13C554.406 195.218 554.166 194.09 553.686 192.746L551.166 185.978L532.446 186.41C531.726 188.378 530.886 190.946 529.926 194.114C529.446 195.698 528.846 197.354 528.126 199.082L533.742 198.794V201.962H520.278V199.586ZM550.158 183.314L545.046 169.562L541.806 160.706H541.662L538.638 168.842L534.75 179.786L533.526 183.314H550.158ZM569.741 199.586C571.421 199.538 572.621 199.154 573.341 198.434C574.061 197.714 574.469 196.874 574.565 195.914C574.661 194.906 574.709 193.178 574.709 190.73V159.626C574.709 157.61 574.781 155.882 574.925 154.442L569.741 154.73V151.562C574.733 151.466 578.501 151.418 581.045 151.418C583.349 151.418 585.077 151.442 586.229 151.49C592.997 151.586 597.941 152.738 601.061 154.946C604.229 157.106 605.813 160.25 605.813 164.378C605.861 167.69 604.877 170.666 602.861 173.306C600.845 175.946 597.341 177.77 592.349 178.778C593.165 179.402 593.909 180.146 594.581 181.01C595.253 181.874 596.165 183.218 597.317 185.042L602.213 192.746C603.269 194.426 604.133 195.722 604.805 196.634C605.525 197.498 606.365 198.218 607.325 198.794C608.333 199.322 609.557 199.586 610.997 199.586V201.962H601.925C600.629 200.858 599.525 199.73 598.613 198.578C597.749 197.378 596.717 195.842 595.517 193.97L590.693 186.266L589.757 184.754C588.989 183.458 588.317 182.402 587.741 181.586C587.165 180.77 586.541 180.05 585.869 179.426C585.437 179.474 584.765 179.498 583.853 179.498C582.557 179.498 581.597 179.474 580.973 179.426V193.394C580.973 195.938 580.901 197.834 580.757 199.082L585.941 198.794V201.962H569.741V199.586ZM584.141 176.762C593.933 176.762 598.829 172.898 598.829 165.17C598.829 161.522 597.773 158.786 595.661 156.962C593.549 155.138 590.309 154.226 585.941 154.226C584.261 154.226 583.061 154.562 582.341 155.234C581.621 155.906 581.213 156.722 581.117 157.682C581.021 158.642 580.973 160.346 580.973 162.794V176.618C582.413 176.714 583.469 176.762 584.141 176.762ZM639.936 203.114C634.176 203.114 629.376 201.842 625.536 199.298C621.696 196.754 618.864 193.49 617.04 189.506C615.216 185.474 614.304 181.226 614.304 176.762C614.304 172.49 615.24 168.338 617.112 164.306C619.032 160.274 621.864 156.962 625.608 154.37C629.4 151.73 633.984 150.41 639.36 150.41C644.88 150.41 649.56 151.73 653.4 154.37C657.288 156.962 660.192 160.274 662.112 164.306C664.032 168.338 664.992 172.49 664.992 176.762C664.992 180.986 664.032 185.138 662.112 189.218C660.24 193.25 657.408 196.586 653.616 199.226C649.872 201.818 645.312 203.114 639.936 203.114ZM640.08 200.162C643.824 200.162 647.016 199.106 649.656 196.994C652.344 194.834 654.36 192.074 655.704 188.714C657.096 185.354 657.792 181.826 657.792 178.13C657.792 174.05 657.048 170.114 655.56 166.322C654.072 162.482 651.912 159.362 649.08 156.962C646.248 154.514 642.936 153.29 639.144 153.29C635.4 153.29 632.184 154.37 629.496 156.53C626.808 158.642 624.768 161.402 623.376 164.81C622.032 168.218 621.36 171.77 621.36 175.466C621.36 179.258 622.056 183.074 623.448 186.914C624.84 190.706 626.952 193.874 629.784 196.418C632.616 198.914 636.048 200.162 640.08 200.162ZM695.236 203.114C690.148 203.114 686.116 202.226 683.14 200.45C680.212 198.626 678.1 195.866 676.804 192.17C675.556 188.426 674.932 183.506 674.932 177.41V162.794C674.932 159.722 675.028 156.938 675.22 154.442L670.036 154.658V151.562H686.164V153.938C684.052 153.938 682.708 154.49 682.132 155.594C681.556 156.698 681.268 158.042 681.268 159.626V177.77C681.268 181.946 681.628 185.57 682.348 188.642C683.116 191.666 684.58 194.162 686.74 196.13C688.948 198.05 692.092 199.01 696.172 199.01C701.164 199.01 704.86 197.306 707.26 193.898C709.708 190.442 710.98 185.762 711.076 179.858L711.292 159.626C711.292 157.61 711.364 155.882 711.508 154.442L706.396 154.73V151.562H719.788V153.938C718.06 153.986 716.836 154.37 716.116 155.09C715.396 155.81 714.988 156.674 714.892 157.682C714.796 158.642 714.748 160.346 714.748 162.794L714.604 179.498C714.556 186.458 712.996 192.146 709.924 196.562C706.9 200.93 702.004 203.114 695.236 203.114Z" fill="#17B8EB"/>
<defs>
<linearGradient id="paint0_linear" x1="328.74" y1="18.502" x2="372.451" y2="307.678" gradientUnits="userSpaceOnUse">
<stop offset="0.970215" stop-color="#4DEA33" stop-opacity="0.6"/>
<stop offset="1" stop-color="#4DEA33" stop-opacity="0"/>
</linearGradient>
<linearGradient id="paint1_linear" x1="205.519" y1="40.8944" x2="315.493" y2="319.912" gradientUnits="userSpaceOnUse">
<stop offset="0.606085" stop-color="#ECD71B"/>
<stop offset="1" stop-color="#41A45D" stop-opacity="0"/>
</linearGradient>
<linearGradient id="paint2_linear" x1="326.846" y1="57.3256" x2="180.534" y2="-24.2005" gradientUnits="userSpaceOnUse">
<stop stop-color="#EC341B"/>
<stop offset="0.859375" stop-color="#41A45D" stop-opacity="0"/>
</linearGradient>
</defs>
</svg>
